<svg width="90" height="120" viewBox="0 0 90 120" fill="none" xmlns="http://www.w3.org/2000/svg">
<g filter="url(#filter0_d_1_3131)">
<ellipse cx="59.8661" cy="59.0981" rx="0.125646" ry="0.849744" fill="white"/>
</g>
<path d="M0.0805658 0.47632C0.080958 0.460371 0.0792669 0.445395 0.0767886 0.442871C0.0743103 0.440347 0.0719834 0.451231 0.0715912 0.467181L0.0805658 0.47632ZM0.050722 0.60149C0.0482437 0.604014 0.0465526 0.618989 0.0469447 0.634939C0.0473369 0.650888 0.0496638 0.661772 0.0521421 0.659248L0.050722 0.60149ZM0.0715912 0.467181C0.0707626 0.500884 0.0682969 0.532032 0.0645478 0.55616L0.0709728 0.59751C0.076079 0.564648 0.0794372 0.522223 0.0805658 0.47632L0.0715912 0.467181ZM0.0645478 0.55616C0.0607987 0.580288 0.0559588 0.596157 0.050722 0.60149L0.0521421 0.659248C0.0592746 0.651984 0.0658666 0.630372 0.0709728 0.59751L0.0645478 0.55616Z" fill="#FD650B"/>
<path d="M0.0227157 0.213807L0.0264892 0.177287C0.0249834 0.170842 0.0231414 0.168514 0.0213687 0.170814C0.019596 0.173115 0.0180381 0.179855 0.017038 0.189551L0.0227157 0.213807ZM0.0068147 0.486455H0H0.0068147ZM0.102221 0.486455H0.109035H0.102221ZM0.065194 0.0438582L0.0700042 0.0127929C0.0684378 0.00274514 0.0662112 -0.00178448 0.0640318 0.000643188C0.0618525 0.00307085 0.0599916 0.0121544 0.0590407 0.0250065L0.065194 0.0438582ZM0.0454313 0.311024L0.0416578 0.347543C0.0433034 0.354587 0.0453431 0.356686 0.0472478 0.353294C0.0491526 0.349906 0.0507349 0.341359 0.0515844 0.329876L0.0454313 0.311024ZM0.017038 0.189551C0.0080831 0.276373 0 0.382579 0 0.486455H0.0136294C0.0136294 0.409052 0.0198572 0.320823 0.0283934 0.238062L0.017038 0.189551ZM0 0.486455C0 0.579509 0.0057438 0.668751 0.0159678 0.734552L0.0256053 0.672528C0.0179372 0.623177 0.0136294 0.556247 0.0136294 0.486455H0ZM0.0159678 0.734552C0.0261918 0.80035 0.0400586 0.837316 0.0545176 0.837316V0.749601C0.0436734 0.749601 0.0332733 0.721877 0.0256053 0.672528L0.0159678 0.734552ZM0.0545176 0.837316C0.0689766 0.837316 0.0828431 0.80035 0.0930675 0.734552L0.0834301 0.672528C0.0757618 0.721877 0.0653616 0.749601 0.0545176 0.749601V0.837316ZM0.0930675 0.734552C0.103291 0.668751 0.109035 0.579509 0.109035 0.486455H0.0954058C0.0954058 0.556247 0.091098 0.623177 0.0834301 0.672528L0.0930675 0.734552ZM0.109035 0.486455C0.109035 0.276332 0.0864749 0.11843 0.0700042 0.0127929L0.0603837 0.0749234C0.0770779 0.181996 0.0954058 0.316478 0.0954058 0.486455H0.109035ZM0.0590407 0.0250065L0.0392783 0.292173L0.0515844 0.329876L0.0713472 0.0627098L0.0590407 0.0250065ZM0.0492049 0.274505L0.0264892 0.177287L0.0189421 0.250327L0.0416578 0.347543L0.0492049 0.274505Z" fill="#FD650B"/>
<defs>
<filter id="filter0_d_1_3131" x="29.732" y="58.2484" width="60.268" height="61.7164" filterUnits="userSpaceOnUse" color-interpolation-filters="sRGB">
<feFlood flood-opacity="0" result="BackgroundImageFix"/>
<feColorMatrix in="SourceAlpha" type="matrix" values="0 0 0 0 0 0 0 0 0 0 0 0 0 0 0 0 0 0 127 0" result="hardAlpha"/>
<feOffset dy="30"/>
<feGaussianBlur stdDeviation="15"/>
<feComposite in2="hardAlpha" operator="out"/>
<feColorMatrix type="matrix" values="0 0 0 0 0.571389 0 0 0 0 0.682951 0 0 0 0 0.733333 0 0 0 0.2 0"/>
<feBlend mode="normal" in2="BackgroundImageFix" result="effect1_dropShadow_1_3131"/>
<feBlend mode="normal" in="SourceGraphic" in2="effect1_dropShadow_1_3131" result="shape"/>
</filter>
</defs>
</svg>
