<svg width="19" height="19" viewBox="0 0 19 19" fill="none" xmlns="http://www.w3.org/2000/svg">
<path d="M18.7479 1.47425L15.904 4.31773L17.8843 6.29768C18.005 6.41846 18.0872 6.57233 18.1206 6.73984C18.1539 6.90735 18.1368 7.08098 18.0714 7.23876C18.006 7.39655 17.8953 7.5314 17.7533 7.6263C17.6112 7.72119 17.4443 7.77185 17.2736 7.77187H12.0915C11.8624 7.77186 11.6427 7.68088 11.4807 7.51894C11.3188 7.35699 11.2278 7.13735 11.2278 6.90833V1.72713C11.2278 1.55634 11.2785 1.38939 11.3734 1.24739C11.4683 1.10539 11.6032 0.994714 11.761 0.929354C11.9188 0.863994 12.0925 0.846885 12.26 0.880192C12.4276 0.913499 12.5815 0.995726 12.7022 1.11647L14.6825 3.09642L17.5264 0.25294C17.6067 0.172748 17.7019 0.109136 17.8066 0.0657367C17.9114 0.0223372 18.0237 0 18.1371 0C18.2506 0 18.3629 0.0223372 18.4678 0.0657367C18.5725 0.109136 18.6677 0.172748 18.7479 0.25294C18.8281 0.333132 18.8917 0.428333 18.9352 0.533109C18.9786 0.637885 19.0008 0.750183 19.0008 0.863591C19.0008 0.977 18.9786 1.0893 18.9352 1.19408C18.8917 1.29885 18.8281 1.39406 18.7479 1.47425ZM6.90943 11.226H1.7274C1.55659 11.226 1.38962 11.2767 1.24759 11.3716C1.10557 11.4665 0.994872 11.6013 0.929502 11.7591C0.864132 11.9168 0.847021 12.0906 0.880333 12.258C0.913645 12.4256 0.995885 12.5795 1.11665 12.7002L3.09692 14.6801L0.25298 17.5236C0.172775 17.6039 0.109154 17.699 0.0657472 17.8038C0.0223407 17.9086 0 18.0208 0 18.1342C0 18.2477 0.0223407 18.3599 0.0657472 18.4648C0.109154 18.5696 0.172775 18.6647 0.25298 18.7449C0.414961 18.9068 0.634654 18.9978 0.863729 18.9978C0.977156 18.9978 1.08947 18.9756 1.19427 18.9322C1.29906 18.8887 1.39428 18.8251 1.47448 18.7449L4.31842 15.9015L6.29869 17.8814C6.41949 18.0021 6.57338 18.0843 6.74091 18.1177C6.90845 18.151 7.08211 18.1339 7.23991 18.0685C7.39773 18.0032 7.53261 17.8925 7.62752 17.7505C7.72243 17.6084 7.77309 17.4416 7.77311 17.2708V12.0895C7.7731 11.8605 7.6821 11.6409 7.52014 11.4789C7.35817 11.317 7.13849 11.226 6.90943 11.226Z" fill="#636363"/>
</svg>
