<svg width="71" height="53" viewBox="0 0 71 53" fill="none" xmlns="http://www.w3.org/2000/svg">
<path d="M27.2579 45.1484C32.2231 40.3016 34.6576 32.8932 34.6576 23.0288C34.6576 16.1032 33.0749 10.5946 29.8496 6.56209L29.8496 6.56206L29.8452 6.55675C26.5241 2.51962 22.1288 0.499996 16.7062 0.499995C12.0238 0.499995 8.13383 2.01153 5.07738 5.05124L5.07217 5.05657C2.02883 8.17494 0.500004 11.9046 0.500003 16.2199C0.500003 20.6904 1.87892 24.5031 4.6481 27.6272C7.35279 30.8698 11.1262 32.4738 15.9008 32.4738C18.3286 32.4738 20.2995 32.0035 21.75 31.007C21.1595 33.771 19.8966 36.1062 17.9645 38.0277L18.3171 38.3822L17.9645 38.0277C15.3991 40.5792 11.7379 41.8874 6.9066 41.8874C5.41326 41.8874 3.69135 41.7563 1.7384 41.4914L1.1712 41.4145L1.1712 41.9869L1.1712 51.5995L1.1712 52.0995L1.6712 52.0995C1.99341 52.0995 2.45678 52.14 3.07195 52.2272C3.61723 52.3173 4.16319 52.3637 4.7096 52.3664C5.16237 52.454 5.58233 52.5 5.9669 52.5C15.094 52.5 22.2158 50.0717 27.2579 45.1484ZM27.2579 45.1484L26.9086 44.7906L27.2579 45.1484ZM65.692 6.5621L65.6921 6.56206L65.6877 6.55675C62.3665 2.51962 57.9712 0.499999 52.5486 0.499998C47.8662 0.499998 43.9762 2.01153 40.9198 5.05128L40.9198 5.05124L40.9146 5.05657C37.8712 8.17494 36.3424 11.9046 36.3424 16.2199C36.3424 20.6904 37.7213 24.5031 40.4905 27.6271C43.1951 30.8698 46.9685 32.4738 51.7432 32.4738C54.171 32.4738 56.1419 32.0035 57.5924 31.007C57.0019 33.771 55.739 36.1062 53.8069 38.0277L53.8069 38.0277C51.2415 40.5792 47.5803 41.8874 42.749 41.8874C41.2557 41.8874 39.5337 41.7563 37.5808 41.4914L37.0136 41.4145L37.0136 41.9869L37.0136 51.5995L37.0136 52.0995L37.5136 52.0995C37.8358 52.0995 38.2992 52.14 38.9143 52.2272C39.4596 52.3173 40.0056 52.3637 40.552 52.3664C41.0048 52.454 41.4248 52.5 41.8093 52.5C50.9363 52.5 58.0582 50.0717 63.1003 45.1483C68.0656 40.3015 70.5 32.8932 70.5 23.0288C70.5 16.1032 68.9173 10.5946 65.692 6.5621Z" stroke="#E29168"/>
</svg>
