<svg width="1" height="12" viewBox="0 0 1 12" fill="none" xmlns="http://www.w3.org/2000/svg">
<path d="M0.620414 6L0.67883 7.17167C0.708126 6.9105 0.725724 6.47083 0.725724 6C0.725724 5.52917 0.708126 5.08951 0.67883 4.82834L0.620414 6ZM0.10531 1.40817L0.163726 0.236503C0.131411 -0.0515608 0.0898611 -0.0784262 0.0556186 0.166619C0.0213763 0.411671 0 0.888841 0 1.40817H0.10531ZM0.10531 10.5918H0C0 11.1112 0.0213763 11.5883 0.0556186 11.8334C0.0898611 12.0784 0.131411 12.0516 0.163726 11.7635L0.10531 10.5918ZM0.67883 4.82834L0.163726 0.236503L0.0468946 2.57983L0.561998 7.17167L0.67883 4.82834ZM0 1.40817V10.5918H0.21062V1.40817H0ZM0.163726 11.7635L0.67883 7.17167L0.561998 4.82834L0.0468946 9.42018L0.163726 11.7635Z" fill="#6E6E6E"/>
</svg>
