<svg width="27" height="27" viewBox="0 0 27 27" fill="none" xmlns="http://www.w3.org/2000/svg">
<path d="M24.7958 13.4999C24.7958 19.7384 19.7384 24.7957 13.4999 24.7957V26.9998C20.9558 26.9998 26.9999 20.9557 26.9999 13.4999H24.7958ZM13.4999 24.7957C7.2614 24.7957 2.20407 19.7384 2.20407 13.4999H0C0 20.9557 6.04413 26.9998 13.4999 26.9998V24.7957ZM2.20407 13.4999C2.20407 7.26138 7.2614 2.20407 13.4999 2.20407V0C6.04413 0 0 6.04411 0 13.4999H2.20407ZM13.4999 2.20407C19.7384 2.20407 24.7958 7.26138 24.7958 13.4999H26.9999C26.9999 6.04411 20.9558 0 13.4999 0V2.20407Z" fill="#FD650B"/>
<path d="M18.6661 9.43639C19.2747 9.43639 19.7681 8.943 19.7681 8.33436C19.7681 7.72572 19.2747 7.23233 18.6661 7.23233V9.43639ZM13.5003 11.4338H12.3983H13.5003ZM12.3983 25.898C12.3983 26.5067 12.8917 27 13.5003 27C14.109 27 14.6023 26.5067 14.6023 25.898H12.3983ZM18.6661 7.23233H16.5998V9.43639H18.6661V7.23233ZM16.5998 7.23233C15.4855 7.23233 14.4168 7.67499 13.6289 8.46292L15.1874 10.0214C15.562 9.64684 16.07 9.43639 16.5998 9.43639V7.23233ZM13.6289 8.46292C12.8409 9.25085 12.3983 10.3195 12.3983 11.4338H14.6023C14.6023 10.9041 14.8128 10.396 15.1874 10.0214L13.6289 8.46292ZM12.3983 11.4338V25.898H14.6023V11.4338H12.3983Z" fill="#FD650B"/>
<path d="M9.36755 14.4644C8.75892 14.4644 8.26552 14.9578 8.26552 15.5664C8.26552 16.1751 8.75892 16.6685 9.36755 16.6685V14.4644ZM17.6328 16.6685C18.2415 16.6685 18.7349 16.1751 18.7349 15.5664C18.7349 14.9578 18.2415 14.4644 17.6328 14.4644V16.6685ZM9.36755 16.6685H17.6328V14.4644H9.36755V16.6685Z" fill="#FD650B"/>
</svg>
