<svg width="28" height="24" viewBox="0 0 28 24" fill="none" xmlns="http://www.w3.org/2000/svg">
<path d="M17.7521 12L18.3335 12.9668C18.6251 12.7513 18.8002 12.3885 18.8002 12C18.8002 11.6115 18.6251 11.2487 18.3335 11.0332L17.7521 12ZM11.8566 7.64269L12.438 6.67588C12.1164 6.43818 11.7029 6.41602 11.3621 6.61822C11.0213 6.82042 10.8085 7.21416 10.8085 7.64269H11.8566ZM11.8566 16.3574H10.8085C10.8085 16.7859 11.0213 17.1797 11.3621 17.3818C11.7029 17.5841 12.1164 17.5619 12.438 17.3242L11.8566 16.3574ZM18.3335 11.0332L12.438 6.67588L11.2752 8.60949L17.1708 12.9668L18.3335 11.0332ZM10.8085 7.64269V16.3574H12.9047V7.64269H10.8085ZM12.438 17.3242L18.3335 12.9668L17.1708 11.0332L11.2752 15.3906L12.438 17.3242Z" fill="#FD650B"/>
<path d="M1.7127 19.6507L2.72834 19.3637L2.72696 19.3579L1.7127 19.6507ZM2.89584 21.1342L2.51453 22.2165L2.51988 22.2189L2.89584 21.1342ZM13.8217 22.8378L13.8285 21.6758L13.815 21.6759L13.8217 22.8378ZM24.7476 21.1342L25.1236 22.2189L25.1289 22.2165L24.7476 21.1342ZM25.9308 19.6508L24.9165 19.3579L24.9152 19.3637L25.9308 19.6508ZM25.9308 4.3492L24.9152 4.63623L24.9166 4.64205L25.9308 4.3492ZM24.7476 2.86574L25.129 1.7834L25.1237 1.78112L24.7476 2.86574ZM13.8217 1.16209L13.815 2.32412L13.8285 2.32402L13.8217 1.16209ZM2.89587 2.86573L2.51991 1.78108L2.51457 1.78339L2.89587 2.86573ZM1.71273 4.34918L2.727 4.64205L2.72835 4.63621L1.71273 4.34918ZM0 12C0 16.1297 0.384667 18.608 0.698444 19.9436L2.72696 19.3579C2.46668 18.25 2.09619 15.9737 2.09619 12H0ZM0.697087 19.9377C0.814947 20.4504 1.04128 20.9244 1.35734 21.3207L2.92771 19.7813C2.83226 19.6616 2.76391 19.5185 2.72832 19.3637L0.697087 19.9377ZM1.35734 21.3207C1.6734 21.717 2.07008 22.0241 2.51453 22.2165L3.27715 20.0519C3.14294 19.9937 3.02315 19.901 2.92771 19.7813L1.35734 21.3207ZM2.51988 22.2189C4.72081 23.1565 7.57565 23.5921 9.81279 23.8008C10.9448 23.9064 11.9446 23.9561 12.662 23.9795C13.0211 23.9911 13.3102 23.9962 13.5107 23.9984C13.611 23.9995 13.6891 23.9998 13.7428 23.9999C13.7697 23.9999 13.7904 23.9999 13.8048 23.9999C13.812 23.9999 13.8176 23.9998 13.8215 23.9998C13.8235 23.9998 13.8251 23.9998 13.8263 23.9998C13.8268 23.9998 13.8273 23.9998 13.8276 23.9998C13.8278 23.9998 13.828 23.9998 13.8281 23.9998C13.8282 23.9998 13.8285 23.9998 13.8217 22.8378C13.815 21.6759 13.8151 21.6759 13.8153 21.6759C13.8153 21.6759 13.815 21.6759 13.8148 21.6759C13.8143 21.6759 13.8134 21.6759 13.8121 21.6759C13.8095 21.676 13.8052 21.676 13.7993 21.676C13.7877 21.676 13.7697 21.676 13.7457 21.676C13.6975 21.6759 13.6252 21.6757 13.5312 21.6746C13.343 21.6725 13.0675 21.6678 12.7236 21.6565C12.0349 21.6342 11.0742 21.5864 9.98861 21.4851C7.79074 21.28 5.18263 20.8637 3.27181 20.0496L2.51988 22.2189ZM13.8217 22.8378C13.815 23.9998 13.8153 23.9998 13.8154 23.9998C13.8155 23.9998 13.8157 23.9998 13.8159 23.9998C13.8162 23.9998 13.8167 23.9998 13.8172 23.9998C13.8184 23.9998 13.82 23.9998 13.822 23.9998C13.8259 23.9998 13.8315 23.9999 13.8387 23.9999C13.8531 23.9999 13.8738 23.9999 13.9007 23.9999C13.9544 23.9998 14.0325 23.9995 14.1328 23.9984C14.3333 23.9962 14.6224 23.9911 14.9815 23.9795C15.6989 23.9561 16.6987 23.9064 17.8307 23.8008C20.0678 23.5921 22.9227 23.1565 25.1236 22.2189L24.3717 20.0496C22.4608 20.8637 19.8527 21.28 17.6548 21.4851C16.5693 21.5864 15.6086 21.6342 14.9199 21.6565C14.576 21.6678 14.3005 21.6725 14.1123 21.6746C14.0183 21.6757 13.9459 21.6759 13.8978 21.676C13.8738 21.676 13.8558 21.676 13.8442 21.676C13.8383 21.676 13.834 21.676 13.8314 21.6759C13.8301 21.6759 13.8292 21.6759 13.8287 21.6759C13.8285 21.6759 13.8282 21.6759 13.8282 21.6759C13.8284 21.6759 13.8285 21.6759 13.8217 22.8378ZM25.1289 22.2165C25.5734 22.0241 25.97 21.717 26.2861 21.3208L24.7157 19.7813C24.6203 19.901 24.5006 19.9937 24.3663 20.0519L25.1289 22.2165ZM26.2861 21.3208C26.6022 20.9244 26.8285 20.4504 26.9464 19.9378L24.9152 19.3637C24.8796 19.5185 24.8112 19.6617 24.7157 19.7813L26.2861 21.3208ZM26.945 19.9436C27.2588 18.608 27.6435 16.1297 27.6435 12H25.5473C25.5473 15.9737 25.1768 18.25 24.9165 19.3579L26.945 19.9436ZM27.6435 12C27.6435 7.87022 27.2588 5.39199 26.945 4.05634L24.9166 4.64205C25.1768 5.75001 25.5473 8.02628 25.5473 12H27.6435ZM26.9464 4.06218C26.8285 3.5496 26.6022 3.07552 26.2861 2.67924L24.7157 4.2186C24.8112 4.33827 24.8796 4.48142 24.9152 4.63622L26.9464 4.06218ZM26.2861 2.67924C25.9701 2.28295 25.5734 1.97586 25.129 1.78341L24.3663 3.94807C24.5006 4.00619 24.6204 4.09893 24.7157 4.2186L26.2861 2.67924ZM25.1237 1.78112C22.9227 0.843441 20.0679 0.407921 17.8307 0.199146C16.6988 0.0935064 15.6989 0.0438152 14.9815 0.0204865C14.6224 0.0088123 14.3333 0.00371362 14.1328 0.00154192C14.0325 0.000455488 13.9544 9.99285e-05 13.9007 1.97533e-05C13.8738 -2.20772e-05 13.8531 9.29567e-06 13.8387 5.11262e-05C13.8315 7.20415e-05 13.8259 9.52807e-05 13.822 0.000115034C13.82 0.000125492 13.8184 0.000133625 13.8172 0.000140597C13.8167 0.000144083 13.8162 0.000147569 13.8159 0.000149893C13.8157 0.000151055 13.8155 0.000152217 13.8154 0.000153379C13.8153 0.000154541 13.815 0.000154584 13.8217 1.16209C13.8285 2.32402 13.8284 2.32402 13.8282 2.32402C13.8282 2.32402 13.8285 2.32402 13.8287 2.32402C13.8292 2.32402 13.8301 2.32401 13.8314 2.32401C13.834 2.324 13.8383 2.32398 13.8442 2.32397C13.8558 2.32393 13.8738 2.3239 13.8978 2.32393C13.9459 2.32401 14.0183 2.32433 14.1123 2.32535C14.3005 2.32739 14.576 2.33222 14.9199 2.34341C15.6086 2.3658 16.5693 2.41356 17.6548 2.51488C19.8528 2.71999 22.4609 3.13629 24.3717 3.95037L25.1237 1.78112ZM13.8217 1.16209C13.8285 0.000154584 13.8282 0.000154541 13.8281 0.000153379C13.828 0.000152217 13.8278 0.000151055 13.8276 0.000149893C13.8273 0.000147569 13.8268 0.000144083 13.8263 0.000140597C13.8251 0.000133625 13.8235 0.000125492 13.8215 0.000115034C13.8176 9.52807e-05 13.812 7.20415e-05 13.8048 5.11262e-05C13.7904 9.29567e-06 13.7697 -2.20772e-05 13.7428 1.97533e-05C13.6891 9.99285e-05 13.611 0.000455488 13.5107 0.00154192C13.3102 0.00371362 13.0211 0.0088123 12.662 0.0204865C11.9446 0.0438152 10.9448 0.0935064 9.81282 0.199144C7.5757 0.407917 4.72087 0.843433 2.51992 1.7811L3.27184 3.95036C5.18268 3.13628 7.79079 2.71999 9.98865 2.51488C11.0742 2.41356 12.0349 2.3658 12.7236 2.34341C13.0675 2.33222 13.343 2.32739 13.5312 2.32535C13.6252 2.32433 13.6975 2.32401 13.7457 2.32393C13.7697 2.3239 13.7877 2.32393 13.7993 2.32397C13.8052 2.32398 13.8095 2.324 13.8121 2.32401C13.8134 2.32401 13.8143 2.32402 13.8148 2.32402C13.815 2.32402 13.8153 2.32402 13.8153 2.32402C13.8151 2.32402 13.815 2.32402 13.8217 1.16209ZM2.51457 1.78339C2.07013 1.97584 1.67344 2.28292 1.35738 2.67921L2.92774 4.21859C3.02318 4.09892 3.14296 4.00618 3.27718 3.94806L2.51457 1.78339ZM1.35738 2.67921C1.04132 3.07549 0.814981 3.54957 0.697116 4.06214L2.72835 4.63621C2.76394 4.48141 2.83229 4.33826 2.92774 4.21859L1.35738 2.67921ZM0.698473 4.05631C0.384684 5.39196 0 7.87021 0 12H2.09619C2.09619 8.02628 2.46669 5.74999 2.72699 4.64204L0.698473 4.05631Z" fill="#FD650B"/>
</svg>
