<svg width="7" height="25" viewBox="0 0 7 25" fill="none" xmlns="http://www.w3.org/2000/svg">
<path d="M4.29732 1.25454L4.29324 2.50849L4.29386 2.50853L4.29732 1.25454ZM5.40154 4.32156L5.12719 4.8231C5.1748 5.28016 5.28251 5.57563 5.40154 5.57563V4.32156ZM6.4783 4.32156L6.68997 5.20832C6.77558 4.84965 6.80119 4.31026 6.75486 3.84164C6.70853 3.37303 6.59939 3.06749 6.4783 3.06749V4.32156ZM5.49306 8.44924L5.28139 7.56249C5.22996 7.77801 5.19901 8.06467 5.19432 8.36884L5.49306 8.44924ZM1.5978 23.746L1.59795 22.4919H1.5978V23.746ZM0.377678 22.2125L0.272573 21.0383C0.18704 21.1726 0.120835 21.4633 0.0927928 21.8276C0.0647509 22.1918 0.0779423 22.5897 0.128614 22.9081L0.377678 22.2125ZM1.84183 17.6119L2.09089 18.3076C2.13852 18.0083 2.15317 17.6378 2.13114 17.2901C2.1091 16.9425 2.05249 16.6512 1.9757 16.4902L1.84183 17.6119ZM0.377678 2.27688L0.589342 1.39012C0.510614 1.06029 0.394698 0.940774 0.288425 1.07985C0.182152 1.21893 0.103085 1.59362 0.0831688 2.05254L0.377678 2.27688ZM3.06195 8.41091L3.01275 9.64792C3.09953 9.70851 3.18829 9.60606 3.25545 9.36779C3.32258 9.12952 3.36128 8.77954 3.36128 8.41091H3.06195ZM3.36128 6.36624C3.36128 4.25206 3.78957 2.47971 4.29324 2.50849L4.30141 0.000583908C3.46295 -0.0473106 2.76262 2.85754 2.76262 6.36624H3.36128ZM4.29386 2.50853C4.47123 2.51711 4.64422 2.74009 4.79204 3.1507L5.12287 1.06026C4.87892 0.382688 4.59346 0.0147058 4.30079 0.000551194L4.29386 2.50853ZM4.79204 3.1507C4.93989 3.5613 5.05626 4.14204 5.12719 4.8231L5.67589 3.82001C5.55884 2.69614 5.36679 1.73782 5.12287 1.06026L4.79204 3.1507ZM5.40154 5.57563H6.4783V3.06749H5.40154V5.57563ZM6.26665 3.43479L5.28139 7.56249L5.70471 9.33601L6.68997 5.20832L6.26665 3.43479ZM5.19432 8.36884C5.13563 12.1971 4.73113 15.7879 4.06309 18.4113L4.4725 20.2412C5.25159 17.1817 5.72332 12.9941 5.79177 8.52965L5.19432 8.36884ZM4.06309 18.4113C3.39504 21.0348 2.51359 22.4939 1.59795 22.4919L1.59766 25C2.66548 25.0023 3.69344 23.3007 4.4725 20.2412L4.06309 18.4113ZM1.5978 22.4919C1.14735 22.4919 0.889757 22.1387 0.75557 21.8575C0.688188 21.7164 0.649495 21.5885 0.631303 21.5199C0.6221 21.4853 0.617753 21.4642 0.617344 21.4622C0.61713 21.4612 0.617883 21.4648 0.619489 21.4737C0.62029 21.4782 0.621306 21.4839 0.622519 21.491C0.623125 21.4946 0.623784 21.4986 0.624486 21.5029C0.624838 21.505 0.625202 21.5073 0.62558 21.5096C0.625767 21.5108 0.625957 21.512 0.626152 21.5132C0.626249 21.5137 0.626397 21.5147 0.626444 21.515C0.626592 21.5159 0.626741 21.5169 0.377678 22.2125C0.128614 22.9081 0.128765 22.909 0.128917 22.91C0.128969 22.9103 0.129122 22.9113 0.129226 22.9119C0.129435 22.9133 0.129648 22.9146 0.129866 22.9159C0.130302 22.9186 0.130757 22.9214 0.13123 22.9243C0.132176 22.9301 0.133197 22.9362 0.134296 22.9427C0.136492 22.9557 0.138997 22.97 0.141825 22.9857C0.147483 23.0171 0.15443 23.0536 0.162796 23.0945C0.179544 23.1764 0.201887 23.2752 0.230812 23.3842C0.288878 23.6032 0.3722 23.8587 0.487835 24.1009C0.719689 24.5866 1.07216 25 1.5978 25V22.4919ZM0.377678 22.2125C0.482782 23.3868 0.482853 23.3866 0.482928 23.3864C0.482958 23.3864 0.483037 23.3863 0.483097 23.3862C0.483217 23.386 0.483352 23.3858 0.483503 23.3856C0.483803 23.3851 0.484163 23.3846 0.484582 23.3838C0.48542 23.3825 0.486494 23.3809 0.487799 23.3787C0.490408 23.3745 0.493942 23.3688 0.498354 23.3615C0.507176 23.3469 0.51952 23.3262 0.535025 23.2994C0.566017 23.2456 0.609736 23.1671 0.66326 23.0636C0.770074 22.8571 0.917186 22.5488 1.08074 22.1377C1.40301 21.3276 1.81168 20.0622 2.09089 18.3076L1.59276 16.9163C1.38392 18.2287 1.06052 19.2636 0.772726 19.987C0.631251 20.3426 0.503835 20.6095 0.412379 20.7864C0.366767 20.8745 0.330416 20.9397 0.306121 20.9818C0.293981 21.0028 0.284879 21.0181 0.279164 21.0275C0.276308 21.0323 0.274301 21.0354 0.273187 21.0373C0.27263 21.0382 0.272297 21.0387 0.272193 21.0388C0.27214 21.0389 0.272146 21.0389 0.272209 21.0388C0.27224 21.0388 0.272286 21.0387 0.272347 21.0386C0.272378 21.0386 0.272434 21.0385 0.272449 21.0385C0.27251 21.0384 0.272573 21.0383 0.377678 22.2125ZM1.84183 17.6119C1.9757 16.4902 1.97585 16.4906 1.97599 16.4909C1.97603 16.491 1.97616 16.4912 1.97624 16.4914C1.97639 16.4918 1.97651 16.492 1.9766 16.4922C1.97679 16.4925 1.97686 16.4928 1.97682 16.4926C1.97674 16.4924 1.97621 16.4913 1.97524 16.4892C1.9733 16.485 1.96964 16.4768 1.96436 16.4646C1.95382 16.4403 1.93689 16.4001 1.91461 16.3432C1.87001 16.2294 1.8043 16.0499 1.72568 15.7993C1.56809 15.2969 1.36103 14.5168 1.16772 13.4177C0.78654 11.2504 0.443804 7.76363 0.672188 2.50121L0.0831688 2.05254C-0.176499 8.03585 0.21284 12.2166 0.685752 14.9054C0.919485 16.2344 1.16997 17.1794 1.36317 17.7953C1.45994 18.1037 1.54293 18.3315 1.60318 18.4853C1.63334 18.5623 1.65787 18.6209 1.67568 18.662C1.68459 18.6825 1.69182 18.6986 1.69725 18.7106C1.69996 18.7165 1.70222 18.7214 1.70401 18.7252C1.70491 18.7272 1.70569 18.7288 1.70634 18.7302C1.70667 18.7309 1.70697 18.7315 1.70724 18.7321C1.70738 18.7324 1.70756 18.7327 1.70762 18.733C1.7078 18.7333 1.70796 18.7336 1.84183 17.6119ZM0.377678 2.27688C0.166014 3.16364 0.166071 3.16388 0.166132 3.16413C0.166158 3.16424 0.166224 3.16451 0.166277 3.16474C0.166384 3.16519 0.166509 3.16571 0.166653 3.16631C0.166941 3.16751 0.167304 3.16903 0.167741 3.17084C0.168616 3.17448 0.169788 3.17933 0.171254 3.18537C0.174186 3.19747 0.178294 3.2143 0.183549 3.23562C0.194058 3.27823 0.209161 3.33875 0.228619 3.41491C0.267521 3.56717 0.323911 3.78223 0.395875 4.04185C0.539617 4.56041 0.746509 5.26041 1.00118 5.99392C1.50619 7.44849 2.21929 9.09389 3.01275 9.64792L3.11117 7.1739C2.44047 6.70559 1.81143 5.28397 1.34034 3.92712C1.10696 3.2549 0.917311 2.61309 0.786524 2.14126C0.721224 1.90568 0.670852 1.71341 0.637311 1.58213C0.620545 1.51651 0.608005 1.46621 0.599925 1.43345C0.595888 1.41707 0.592965 1.40509 0.591192 1.39777C0.590305 1.39411 0.589703 1.39162 0.589394 1.39033C0.58924 1.38969 0.589157 1.38935 0.589149 1.38931C0.589144 1.38929 0.589157 1.38935 0.589191 1.38948C0.589206 1.38955 0.589243 1.38971 0.58925 1.38974C0.589295 1.38992 0.589342 1.39012 0.377678 2.27688ZM3.36128 8.41091V6.36624H2.76262V8.41091H3.36128Z" fill="#6E6E6E"/>
</svg>
