<svg width="20" height="20" viewBox="0 0 20 20" fill="none" xmlns="http://www.w3.org/2000/svg">
<path d="M12.5 8.875C12.5 9.8415 11.7165 10.625 10.75 10.625V12.125C12.5449 12.125 14 10.6699 14 8.875H12.5ZM10.75 10.625C9.7835 10.625 9 9.8415 9 8.875H7.5C7.5 10.6699 8.95507 12.125 10.75 12.125V10.625ZM9 8.875C9 7.9085 9.7835 7.125 10.75 7.125V5.625C8.95507 5.625 7.5 7.08007 7.5 8.875H9ZM10.75 7.125C11.7165 7.125 12.5 7.9085 12.5 8.875H14C14 7.08007 12.5449 5.625 10.75 5.625V7.125Z" fill="#7B7B7B"/>
<path d="M10.75 18.875L10.3199 19.4894C10.5781 19.6702 10.9219 19.6702 11.1801 19.4894L10.75 18.875ZM10.75 2.625V1.875V2.625ZM16.25 8.875C16.25 11.4175 14.8286 13.7447 13.309 15.4922C12.5584 16.3555 11.8059 17.0518 11.2408 17.5321C10.9588 17.7718 10.7249 17.9565 10.5631 18.0801C10.4823 18.1419 10.4196 18.1884 10.378 18.2187C10.3572 18.2339 10.3417 18.245 10.3319 18.252C10.327 18.2555 10.3235 18.258 10.3215 18.2594C10.3205 18.2602 10.3198 18.2606 10.3196 18.2608C10.3194 18.2609 10.3194 18.2609 10.3195 18.2609C10.3195 18.2609 10.3196 18.2608 10.3196 18.2608C10.3198 18.2607 10.3199 18.2606 10.75 18.875C11.1801 19.4894 11.1803 19.4893 11.1805 19.4891C11.1806 19.489 11.1809 19.4889 11.1811 19.4887C11.1815 19.4884 11.1821 19.488 11.1827 19.4876C11.1839 19.4867 11.1856 19.4856 11.1876 19.4842C11.1916 19.4813 11.197 19.4775 11.2039 19.4725C11.2178 19.4626 11.2374 19.4485 11.2624 19.4303C11.3124 19.3938 11.3839 19.3407 11.474 19.2719C11.654 19.1343 11.9084 18.9333 12.2123 18.675C12.8191 18.1592 13.6291 17.4102 14.441 16.4765C16.0464 14.6303 17.75 11.9575 17.75 8.875H16.25ZM10.75 18.875C11.1801 18.2606 11.1802 18.2607 11.1804 18.2608C11.1804 18.2608 11.1805 18.2609 11.1805 18.2609C11.1806 18.2609 11.1806 18.2609 11.1804 18.2608C11.1802 18.2606 11.1795 18.2602 11.1785 18.2594C11.1765 18.258 11.173 18.2555 11.1681 18.252C11.1583 18.245 11.1428 18.2339 11.122 18.2187C11.0804 18.1884 11.0177 18.1419 10.9369 18.0801C10.7751 17.9565 10.5412 17.7718 10.2592 17.5321C9.69412 17.0518 8.94158 16.3555 8.19095 15.4922C6.67139 13.7447 5.25 11.4175 5.25 8.875H3.75C3.75 11.9575 5.45361 14.6303 7.05905 16.4765C7.87092 17.4102 8.68088 18.1592 9.2877 18.675C9.59164 18.9333 9.84599 19.1343 10.026 19.2719C10.1161 19.3407 10.1876 19.3938 10.2376 19.4303C10.2626 19.4485 10.2822 19.4626 10.2961 19.4725C10.303 19.4775 10.3084 19.4813 10.3124 19.4842C10.3144 19.4856 10.3161 19.4867 10.3173 19.4876C10.3179 19.488 10.3185 19.4884 10.3189 19.4887C10.3191 19.4889 10.3194 19.489 10.3195 19.4891C10.3197 19.4893 10.3199 19.4894 10.75 18.875ZM5.25 8.875C5.25 7.41631 5.82946 6.01736 6.86091 4.98591L5.80025 3.92525C4.4875 5.23801 3.75 7.01848 3.75 8.875H5.25ZM6.86091 4.98591C7.89236 3.95446 9.29131 3.375 10.75 3.375V1.875C8.89348 1.875 7.11301 2.6125 5.80025 3.92525L6.86091 4.98591ZM10.75 3.375C12.2087 3.375 13.6076 3.95446 14.6391 4.98591L15.6997 3.92525C14.387 2.6125 12.6065 1.875 10.75 1.875V3.375ZM14.6391 4.98591C15.6705 6.01736 16.25 7.41631 16.25 8.875H17.75C17.75 7.01848 17.0125 5.23801 15.6997 3.92525L14.6391 4.98591Z" fill="#7B7B7B"/>
</svg>
