<svg width="1" height="12" viewBox="0 0 1 12" fill="none" xmlns="http://www.w3.org/2000/svg">
<path d="M0.0385852 5.20353e-05C0.0172081 0.002501 -6.71202e-05 0.634925 1.96067e-07 1.41262C6.71758e-05 2.19032 0.0174511 2.8188 0.0388282 2.81635L0.0385852 5.20353e-05ZM0.252436 10.5874C0.252369 11.3651 0.269644 11.9975 0.291021 12C0.312398 12.0024 0.329782 11.3739 0.329849 10.5962L0.252436 10.5874ZM0.0388282 2.81635C0.0669043 2.81314 0.0947206 3.01196 0.120677 3.40136L0.150189 0.797736C0.114797 0.266776 0.0768683 -0.00431937 0.0385852 5.20353e-05L0.0388282 2.81635ZM0.120677 3.40136C0.146633 3.79076 0.170215 4.36304 0.190068 5.08529L0.244808 3.09385C0.217738 2.10904 0.185581 1.3287 0.150189 0.797736L0.120677 3.40136ZM0.190068 5.08529C0.209921 5.80754 0.225652 6.66549 0.236356 7.60976L0.307923 6.53609C0.293328 5.24853 0.271878 4.07868 0.244808 3.09385L0.190068 5.08529ZM0.236356 7.60976C0.247059 8.55403 0.252524 9.56599 0.252436 10.5874L0.329849 10.5962C0.32997 9.20351 0.322518 7.82365 0.307923 6.53609L0.236356 7.60976Z" fill="#6E6E6E"/>
</svg>
