<svg width="12" height="13" viewBox="0 0 12 13" fill="none" xmlns="http://www.w3.org/2000/svg">
<path d="M1.02798 9.99103C1.43654 10.6284 2.25181 10.7916 2.84893 10.3555C3.44606 9.91938 3.59893 9.04913 3.19036 8.41175L1.02798 9.99103ZM6.00001 10.0125C5.27649 10.0125 4.68997 10.6385 4.68997 11.4108C4.68997 12.1832 5.27649 12.8092 6.00001 12.8092V10.0125ZM3.19036 8.41175C2.8293 7.84845 2.62009 7.15905 2.62009 6.40462H0C0 7.71979 0.367214 8.96017 1.02798 9.99103L3.19036 8.41175ZM2.62009 6.40462C2.62009 4.40812 4.12964 2.79678 6.00001 2.79678V0C2.6826 0 0 2.8635 0 6.40462H2.62009ZM6.00001 2.79678C7.87038 2.79678 9.37993 4.40812 9.37993 6.40462H12C12 2.8635 9.31743 0 6.00001 0V2.79678ZM9.37993 6.40462C9.37993 8.40111 7.87038 10.0125 6.00001 10.0125V12.8092C9.31743 12.8092 12 9.94574 12 6.40462H9.37993Z" fill="#FD650B"/>
</svg>
