<svg width="20" height="20" viewBox="0 0 20 20" fill="none" xmlns="http://www.w3.org/2000/svg">
<path d="M4.525 10C3.7518 10 3.125 10.6268 3.125 11.4C3.125 12.1732 3.7518 12.8 4.525 12.8V10ZM18.275 12.8C19.0482 12.8 19.675 12.1732 19.675 11.4C19.675 10.6268 19.0482 10 18.275 10V12.8ZM4.525 12.8H18.275V10H4.525V12.8Z" fill="white"/>
<path d="M12.8 4.525C12.8 3.7518 12.1732 3.125 11.4 3.125C10.6268 3.125 10 3.7518 10 4.525H12.8ZM10 18.275C10 19.0482 10.6268 19.675 11.4 19.675C12.1732 19.675 12.8 19.0482 12.8 18.275H10ZM10 4.525V18.275H12.8V4.525H10Z" fill="white"/>
</svg>
