<svg width="20" height="19" viewBox="0 0 20 19" fill="none" xmlns="http://www.w3.org/2000/svg">
<path d="M1 7L0.4453 6.16795C0.167101 6.35342 0 6.66565 0 7H1ZM19 7H20C20 6.66565 19.8329 6.35342 19.5547 6.16795L19 7ZM10 0.999997L10.5547 0.167948C10.2188 -0.0559825 9.7812 -0.0559825 9.4453 0.167948L10 0.999997ZM0 7V16.75H2V7H0ZM0 16.75C0 17.2141 0.184374 17.6592 0.512563 17.9874L1.92678 16.5732C1.97366 16.6201 2 16.6837 2 16.75H0ZM0.512563 17.9874C0.840753 18.3156 1.28587 18.5 1.75 18.5V16.5C1.8163 16.5 1.87989 16.5263 1.92678 16.5732L0.512563 17.9874ZM1.75 18.5H18.25V16.5H1.75V18.5ZM18.25 18.5C18.7141 18.5 19.1592 18.3156 19.4874 17.9874L18.0732 16.5732C18.1201 16.5263 18.1837 16.5 18.25 16.5V18.5ZM19.4874 17.9874C19.8156 17.6592 20 17.2141 20 16.75H18C18 16.6837 18.0263 16.6201 18.0732 16.5732L19.4874 17.9874ZM20 16.75V7H18V16.75H20ZM19.5547 6.16795L10.5547 0.167948L9.4453 1.83205L18.4453 7.83205L19.5547 6.16795ZM9.4453 0.167948L0.4453 6.16795L1.5547 7.83205L10.5547 1.83205L9.4453 0.167948Z" fill="#6E6E6E"/>
</svg>
