<svg width="32" height="32" viewBox="0 0 32 32" fill="none" xmlns="http://www.w3.org/2000/svg">
<path d="M15.9974 22.6665L17.3307 19.9998V13.1438C19.6254 12.5478 21.3308 10.4772 21.3308 7.99983C21.3308 5.0585 18.9387 2.6665 15.9974 2.6665C13.0561 2.6665 10.6641 5.0585 10.6641 7.99983C10.6641 10.4772 12.3694 12.5478 14.6641 13.1438V19.9998L15.9974 22.6665Z" fill="#FD650B"/>
<path d="M21.6868 14.0839L20.9761 16.6545C24.4308 17.6092 26.6641 19.4452 26.6641 21.3332C26.6641 23.8558 22.2841 26.6665 15.9974 26.6665C9.71073 26.6665 5.33073 23.8558 5.33073 21.3332C5.33073 19.4452 7.56406 17.6092 11.0201 16.6532L10.3094 14.0825C5.59339 15.3865 2.66406 18.1638 2.66406 21.3332C2.66406 25.8185 8.52139 29.3332 15.9974 29.3332C23.4734 29.3332 29.3308 25.8185 29.3308 21.3332C29.3308 18.1638 26.4014 15.3865 21.6868 14.0839Z" fill="#FD650B"/>
</svg>
