<svg width="465" height="480" viewBox="0 0 465 480" fill="none" xmlns="http://www.w3.org/2000/svg">
<path fill-rule="evenodd" clip-rule="evenodd" d="M448.568 475.406L448.033 475.933L451.559 475.901L451.082 475.356" fill="white"/>
<path fill-rule="evenodd" clip-rule="evenodd" d="M449.298 462.808C448.13 464.212 447.382 465.913 447.056 467.91C446.72 469.97 446.812 472.468 447.333 475.403L452.083 475.338C452.553 472.361 452.613 469.862 452.263 467.839C451.924 465.877 451.17 464.197 450.003 462.799C449.937 462.719 449.8 462.671 449.652 462.672C449.502 462.675 449.366 462.727 449.298 462.808Z" fill="#FD650B"/>
<path fill-rule="evenodd" clip-rule="evenodd" d="M447.823 465.253L451.385 465.158C450.608 463.468 450.023 462.631 449.627 462.646C449.231 462.661 448.629 463.53 447.823 465.253Z" fill="#883402"/>
<path fill-rule="evenodd" clip-rule="evenodd" d="M451.012 475.929L451.212 477.391L450.32 476.723L449.642 477.375L449.238 476.705L448.212 477.317L448.51 475.952L447.867 475.957L448.472 475.363L448.598 475.408L448.132 475.866L451.403 475.836L450.984 475.357L451.115 475.314L451.648 475.923L451.012 475.929Z" fill="#1A1A1A"/>
<path d="M446.958 467.893C446.621 469.956 446.714 472.457 447.235 475.395C447.239 475.418 447.271 475.435 447.309 475.434L452.059 475.369C452.097 475.369 452.128 475.351 452.132 475.328C452.603 472.349 452.663 469.846 452.313 467.82C451.972 465.853 451.217 464.168 450.045 462.765C449.966 462.671 449.804 462.612 449.627 462.615C449.45 462.617 449.288 462.679 449.208 462.775C448.034 464.185 447.285 465.891 446.958 467.893ZM447.376 475.344C446.861 472.429 446.772 469.947 447.106 467.9C447.43 465.908 448.176 464.213 449.34 462.814C449.395 462.748 449.506 462.705 449.627 462.704C449.748 462.702 449.859 462.742 449.913 462.806C451.076 464.199 451.827 465.874 452.165 467.831C452.513 469.841 452.454 472.325 451.991 475.281L447.376 475.344Z" fill="#1A1A1A"/>
<path fill-rule="evenodd" clip-rule="evenodd" d="M447.32 471.017L447.551 471.537L447.348 475.369L445.028 476.923L444.623 476.929L447.32 471.017ZM452.118 470.939L454.719 476.806L454.313 476.808L452.019 475.292L451.878 471.463L452.118 470.939Z" fill="white"/>
<path d="M447.238 471.042C447.258 470.998 447.362 470.997 447.382 471.04L447.613 471.56L447.615 471.573L447.412 475.405C447.412 475.415 447.405 475.426 447.393 475.434L445.073 476.988C445.059 476.997 445.039 477.003 445.019 477.003L444.614 477.008C444.565 477.009 444.529 476.982 444.542 476.953L447.238 471.042ZM444.711 476.918L444.986 476.914L447.264 475.387L447.467 471.578L447.308 471.223L444.711 476.918ZM447.467 471.572L447.47 471.584L447.467 471.578L447.467 471.572ZM452.036 470.964C452.056 470.92 452.16 470.919 452.179 470.963L454.78 476.83C454.793 476.858 454.757 476.886 454.708 476.886L454.303 476.888C454.282 476.888 454.262 476.883 454.248 476.873L451.954 475.358C451.942 475.35 451.935 475.34 451.935 475.33L451.794 471.5L451.796 471.487L452.036 470.964ZM451.942 471.503L452.083 475.309L454.337 476.799L454.612 476.798L452.106 471.145L451.942 471.503Z" fill="#1A1A1A"/>
<path d="M450.753 468.307C451.339 467.958 451.352 467.394 450.782 467.048C450.211 466.703 449.274 466.706 448.688 467.055C448.102 467.404 448.089 467.968 448.659 468.314C449.23 468.66 450.168 468.657 450.753 468.307Z" fill="white"/>
<path d="M450.797 468.316C451.412 467.949 451.425 467.357 450.826 466.994C450.227 466.631 449.243 466.634 448.627 467.001C448.012 467.368 447.999 467.96 448.598 468.323C449.196 468.686 450.181 468.683 450.797 468.316ZM450.693 468.253C450.136 468.585 449.246 468.588 448.704 468.26C448.162 467.931 448.174 467.396 448.731 467.064C449.288 466.732 450.178 466.729 450.72 467.057C451.262 467.386 451.25 467.921 450.693 468.253Z" fill="#1A1A1A"/>
<path d="M450.255 468.005C449.952 468.185 449.468 468.187 449.173 468.008C448.878 467.83 448.885 467.538 449.188 467.358C449.491 467.177 449.975 467.176 450.27 467.354C450.565 467.533 450.558 467.824 450.255 468.005ZM450.152 467.942C450.396 467.797 450.401 467.562 450.164 467.418C449.926 467.274 449.535 467.275 449.291 467.42C449.047 467.566 449.042 467.801 449.279 467.945C449.517 468.089 449.908 468.088 450.152 467.942ZM447.789 465.277L447.786 465.188L451.399 465.104L451.402 465.193L447.789 465.277Z" fill="#1A1A1A"/>
<path fill-rule="evenodd" clip-rule="evenodd" d="M170.47 238.504C170.488 238.357 170.561 236.981 170.692 234.376C170.725 233.724 169.974 233.152 168.911 233.021C168.84 233.012 168.804 233.007 168.804 233.007C167.522 232.953 166.381 233.493 166.166 234.255L165.066 238.144" fill="white"/>
<path d="M168.816 233.037L168.92 233.05C169.957 233.179 170.691 233.737 170.659 234.374C170.528 236.977 170.454 238.354 170.437 238.501C170.435 238.518 170.457 238.533 170.486 238.534C170.515 238.535 170.54 238.522 170.542 238.505C170.559 238.357 170.633 236.982 170.764 234.376C170.797 233.709 170.028 233.123 168.941 232.988L168.834 232.975L168.827 232.975C167.518 232.92 166.353 233.47 166.133 234.248L165.034 238.137C165.029 238.154 165.048 238.171 165.077 238.174C165.105 238.177 165.132 238.165 165.137 238.148L166.236 234.259C166.447 233.513 167.562 232.986 168.816 233.037Z" fill="#1A1A1A"/>
<path fill-rule="evenodd" clip-rule="evenodd" d="M171.323 238.162L171.885 235.537C171.939 235.284 171.642 235.053 171.221 235.02C171.189 235.017 171.156 235.016 171.123 235.016C170.603 235.016 170.142 235.217 169.98 235.515L168.541 238.164L171.323 238.162Z" fill="white"/>
<path d="M171.37 238.174C171.396 238.174 171.418 238.162 171.421 238.147L171.983 235.521C172.041 235.251 171.724 235.004 171.275 234.969C171.24 234.967 171.205 234.965 171.17 234.965C170.627 234.965 170.145 235.175 169.977 235.486L168.538 238.135C168.526 238.155 168.552 238.176 168.587 238.176L171.37 238.174ZM171.323 238.111L168.659 238.113L170.076 235.505C170.231 235.221 170.672 235.028 171.17 235.028C171.2 235.028 171.231 235.03 171.261 235.032C171.653 235.062 171.93 235.278 171.879 235.513L171.323 238.111Z" fill="#1A1A1A"/>
<path fill-rule="evenodd" clip-rule="evenodd" d="M157.478 244.605L162.809 243.56C163.413 243.442 163.854 243.128 163.947 242.75L165.087 238.121H171.264L170.171 244.003C169.979 245.039 169.05 245.974 167.625 246.568L161.562 249.095L157.478 244.605Z" fill="#FD650B"/>
<path fill-rule="evenodd" clip-rule="evenodd" d="M170.286 243.472C169.053 243.878 168.157 244.339 167.599 244.857C167.04 245.374 166.563 246.151 166.168 247.186C166.509 247.036 166.8 246.91 167.04 246.808C168.023 246.39 168.779 246.01 169.239 245.57C169.867 244.969 170.216 244.269 170.286 243.472Z" fill="#883402"/>
<path d="M163.576 243.203C163.577 243.203 163.577 243.202 163.577 243.202C163.579 243.201 163.58 243.2 163.582 243.199C163.75 243.069 163.864 242.913 163.906 242.743L165.044 238.119C165.048 238.103 165.07 238.092 165.096 238.092H171.273C171.304 238.092 171.329 238.108 171.325 238.127L170.851 240.681C170.859 240.687 170.863 240.695 170.862 240.703C170.86 240.712 170.853 240.72 170.842 240.725L170.233 244.004C170.038 245.052 169.099 245.997 167.657 246.595L161.626 249.1C161.606 249.108 161.58 249.108 161.562 249.099C160.732 248.682 160.042 248.155 159.49 247.515C158.94 246.878 158.323 245.89 157.637 244.551C157.628 244.535 157.644 244.517 157.671 244.512L162.793 243.53C163.109 243.469 163.379 243.354 163.576 243.203ZM159.391 244.248L157.752 244.563C158.43 245.883 159.041 246.857 159.583 247.486C160.121 248.11 160.793 248.627 161.599 249.035L163.136 248.397L159.391 244.248ZM159.493 244.229L163.223 248.361L167.597 246.544C169.014 245.955 169.938 245.026 170.129 243.997L170.736 240.728L164.593 240.396C164.591 240.396 164.59 240.396 164.589 240.396L164.009 242.752C163.967 242.922 163.857 243.08 163.694 243.214L167.35 244.789C167.374 244.8 167.379 244.819 167.362 244.833C167.345 244.847 167.313 244.851 167.289 244.841L163.63 243.263C163.423 243.413 163.146 243.528 162.825 243.59L159.493 244.229ZM164.605 240.334L170.748 240.666L171.215 238.155H165.141L164.605 240.334Z" fill="#1A1A1A"/>
<path fill-rule="evenodd" clip-rule="evenodd" d="M147.88 245.256C147.88 245.256 146.251 245.766 142.994 246.787L144.38 248.317L148.578 246.618C148.113 245.71 147.88 245.256 147.88 245.256Z" fill="#883402"/>
<path fill-rule="evenodd" clip-rule="evenodd" d="M180.267 252.201L179.255 247.249L179.779 247.102L181.943 245.172L182.327 245.109C182.466 245.089 182.57 245.089 182.641 245.109C182.711 245.129 182.804 245.185 182.92 245.277V251.152C182.843 251.263 182.773 251.34 182.711 251.383C182.648 251.425 182.543 251.467 182.396 251.508L180.267 252.201ZM170.949 256.565L177.58 255.096L177.894 255.642L182.222 256.313L182.396 256.502C182.357 256.641 182.31 256.739 182.257 256.796C182.203 256.853 182.098 256.916 181.943 256.985L172.903 258.265C172.716 258.276 172.565 258.262 172.45 258.223C172.334 258.184 172.218 258.107 172.101 257.992L170.949 256.565Z" fill="white"/>
<path d="M147.83 245.229L142.944 246.761C142.918 246.769 142.908 246.789 142.922 246.804L144.308 248.334C144.323 248.35 144.358 248.356 144.384 248.345L148.581 246.646C148.601 246.638 148.609 246.624 148.602 246.61L147.904 245.248C147.895 245.229 147.859 245.22 147.83 245.229ZM148.491 246.606L144.373 248.274L143.04 246.802L147.823 245.303L148.491 246.606Z" fill="#1A1A1A"/>
<path fill-rule="evenodd" clip-rule="evenodd" d="M162.853 250.459V250.524L158.071 244.962L151.301 246.682C151.427 249.166 152.005 250.817 153.036 251.634C154.066 252.451 155.896 252.71 158.525 252.411H162.329L162.853 250.459Z" fill="#FD650B"/>
<path d="M162.914 250.459V250.524C162.914 250.536 162.905 250.545 162.891 250.55L162.39 252.416C162.386 252.431 162.364 252.442 162.339 252.442H158.539C155.895 252.743 154.047 252.481 153.003 251.653C151.964 250.829 151.384 249.174 151.258 246.683C151.257 246.67 151.27 246.658 151.29 246.653L158.06 244.933C158.086 244.926 158.115 244.933 158.127 244.947L162.841 250.43C162.872 250.422 162.914 250.433 162.914 250.459ZM162.901 250.512L162.903 250.503L162.895 250.494C162.9 250.5 162.902 250.506 162.901 250.512ZM158.056 245.002L151.363 246.703C151.492 249.169 152.068 250.807 153.087 251.615C154.103 252.421 155.913 252.677 158.525 252.38L158.534 252.379H162.294L162.794 250.514L158.056 245.002Z" fill="#1A1A1A"/>
<path fill-rule="evenodd" clip-rule="evenodd" d="M161.596 249.095L161.945 249.494C160.873 250.003 160.024 250.359 159.398 250.564C158.772 250.769 158.085 250.958 157.338 251.131L156.92 250.69C157.6 250.513 158.252 250.317 158.874 250.102C159.496 249.887 160.404 249.552 161.596 249.095Z" fill="#883402"/>
<path fill-rule="evenodd" clip-rule="evenodd" d="M163.654 257.635L180.197 252.243L179.29 247.27L162.886 252.117" fill="#883402"/>
<path d="M161.566 249.048C160.339 249.545 159.386 249.909 158.708 250.138C158.031 250.367 157.394 250.541 156.797 250.66C156.77 250.666 156.755 250.683 156.764 250.7C156.773 250.716 156.803 250.725 156.83 250.72C157.434 250.599 158.076 250.423 158.759 250.193C159.44 249.963 160.395 249.599 161.625 249.1C161.649 249.091 161.655 249.071 161.639 249.057C161.622 249.042 161.59 249.038 161.566 249.048Z" fill="#1A1A1A"/>
<path d="M161.939 249.469C160.8 249.988 159.804 250.386 158.954 250.662C158.107 250.937 157.53 251.083 157.229 251.099C157.2 251.101 157.179 251.116 157.182 251.134C157.184 251.151 157.21 251.164 157.238 251.162C157.558 251.145 158.144 250.997 159.004 250.718C159.859 250.44 160.859 250.04 162.002 249.519C162.025 249.509 162.03 249.489 162.012 249.475C161.995 249.461 161.962 249.458 161.939 249.469Z" fill="#1A1A1A"/>
<path d="M180.16 252.214C180.158 252.212 180.157 252.209 180.156 252.206L179.249 247.298L162.886 252.145C162.86 252.153 162.828 252.146 162.816 252.131C162.803 252.115 162.814 252.096 162.84 252.089L179.684 247.099L181.839 245.189C181.915 245.121 182.042 245.082 182.177 245.083C182.225 245.083 182.271 245.089 182.313 245.098C182.316 245.095 182.321 245.092 182.327 245.088C182.351 245.074 182.378 245.065 182.409 245.061C182.441 245.057 182.472 245.056 182.504 245.056C182.776 245.055 182.996 245.187 182.996 245.35L183.011 250.986C183.011 251.229 182.81 251.467 182.425 251.526L182.425 251.53C182.424 251.541 182.414 251.552 182.397 251.557L163.655 257.663C163.63 257.671 163.598 257.666 163.584 257.65C163.571 257.635 163.58 257.616 163.606 257.608L180.16 252.214ZM180.257 252.183L182.32 251.511L182.468 245.327C182.47 245.228 182.339 245.147 182.175 245.146C182.076 245.145 181.982 245.174 181.926 245.224L179.763 247.141C179.758 247.145 179.751 247.149 179.743 247.151L179.339 247.271C179.347 247.276 179.352 247.282 179.353 247.289L180.257 252.183ZM182.421 245.135C182.515 245.18 182.574 245.25 182.573 245.328L182.426 251.46C182.747 251.402 182.907 251.194 182.906 250.986L182.891 245.35C182.891 245.222 182.718 245.118 182.505 245.118C182.479 245.119 182.454 245.12 182.43 245.123C182.426 245.128 182.424 245.132 182.421 245.135Z" fill="#1A1A1A"/>
<path fill-rule="evenodd" clip-rule="evenodd" d="M150.463 251.468L150.996 253.209L154.974 257.431C156.021 258.542 158.252 259.033 160.245 258.591L161.639 258.282C162.981 257.985 164.138 257.447 164.954 256.742L168.558 253.628L170.949 256.565L177.581 255.096L172.919 248.468C172.408 247.742 171.224 247.27 169.912 247.27C168.527 247.27 167.197 247.6 166.215 248.188L159.966 251.93" fill="#FD650B"/>
<path fill-rule="evenodd" clip-rule="evenodd" d="M165.959 248.34C167.076 248.858 168.239 249.228 169.449 249.452C170.659 249.676 171.997 249.627 173.462 249.305C173.135 248.654 172.775 248.199 172.38 247.941C171.911 247.635 171.036 247.361 170.531 247.291C169.868 247.198 168.645 247.305 167.669 247.585C167.199 247.719 166.629 247.971 165.959 248.34Z" fill="#883402"/>
<path d="M182.38 256.435L182.399 256.432L182.399 256.434C182.508 256.705 182.231 256.978 181.78 257.043L173.061 258.306C172.668 258.364 172.261 258.255 172.067 258.043C172.051 258.041 172.036 258.035 172.029 258.025L168.549 253.688L164.997 256.758C164.174 257.469 163.008 258.011 161.657 258.31L160.262 258.62C158.246 259.066 155.988 258.569 154.928 257.445L150.95 253.223C150.947 253.22 150.945 253.217 150.944 253.214L150.411 251.472C150.406 251.455 150.424 251.439 150.453 251.435C150.481 251.432 150.509 251.444 150.514 251.461L151.046 253.197L155.019 257.414C156.054 258.511 158.258 258.997 160.226 258.56L161.621 258.251C162.952 257.956 164.101 257.422 164.911 256.722L168.515 253.608C168.538 253.588 168.587 253.591 168.605 253.612L170.947 256.532L177.503 255.08L173.569 249.476C171.241 250.158 168.638 249.831 165.768 248.498L160.002 251.95C159.982 251.963 159.948 251.963 159.928 251.95C159.908 251.938 159.908 251.918 159.928 251.906L166.178 248.164C167.17 247.57 168.512 247.237 169.912 247.237C171.244 247.237 172.447 247.717 172.965 248.455L177.611 255.071C177.619 255.074 177.626 255.079 177.629 255.086C177.632 255.091 177.633 255.096 177.632 255.101L177.977 255.593L182.077 256.215C182.224 256.237 182.337 256.307 182.371 256.396C182.376 256.409 182.379 256.422 182.38 256.435ZM182.317 256.579C182.262 256.631 182.175 256.67 182.068 256.684L172.176 258.03C172.353 258.205 172.701 258.294 173.037 258.245L181.755 256.982C182.077 256.935 182.298 256.768 182.317 256.579ZM170.993 256.589L172.105 257.975L182.045 256.623C182.204 256.601 182.305 256.506 182.269 256.41C182.244 256.344 182.16 256.293 182.052 256.276L177.926 255.65C177.91 255.648 177.897 255.641 177.891 255.632L177.544 255.138L170.993 256.589ZM173.528 249.418L172.869 248.479C172.367 247.764 171.202 247.3 169.912 247.3C168.54 247.3 167.224 247.627 166.252 248.209L165.843 248.454C168.682 249.769 171.241 250.089 173.528 249.418Z" fill="#1A1A1A"/>
<path fill-rule="evenodd" clip-rule="evenodd" d="M153.883 244.542L140.829 249.554C137.86 250.694 136.769 252.986 138.286 254.898L139.222 256.078C140.882 258.169 145.048 259.056 148.528 258.058C148.713 258.005 148.895 257.947 149.072 257.884L155.044 255.763C156.157 255.368 157.065 254.796 157.668 254.109L157.74 254.026C158.365 253.314 158.384 252.466 157.793 251.744L156.326 249.956C154.15 250.931 152.975 251.602 152.801 251.97C152.647 252.298 150.872 252.973 147.478 253.995C146.742 254.217 145.846 254.061 145.42 253.638C145.077 253.298 145.258 252.855 145.824 252.649C145.889 252.626 145.957 252.606 146.028 252.59L152.383 251.173" fill="#FD650B"/>
<path fill-rule="evenodd" clip-rule="evenodd" d="M138.107 254.698C138.282 254.992 139.04 255.911 139.329 256.209C139.633 256.521 139.957 256.817 140.376 257.111C140.791 257.402 141.349 257.689 142.191 257.95C142.473 258.037 142.775 258.128 143.098 258.223C142.881 257.12 142.637 256.351 142.365 255.915C142.145 255.561 141.922 255.207 141.598 254.929C140.783 254.229 139.467 253.522 137.649 252.808C137.489 253.284 137.642 253.914 138.107 254.698Z" fill="#883402"/>
<path fill-rule="evenodd" clip-rule="evenodd" d="M153.045 251.571L153.115 252.117C153.955 253.073 154.471 253.65 154.664 253.848C154.867 254.056 155.27 254.57 155.872 255.39C156.548 255.039 157.083 254.675 157.478 254.299C157.873 253.923 158.117 253.546 158.211 253.166C158.304 252.662 158.071 252.096 157.513 251.466C157.234 251.152 156.827 250.628 156.291 249.893C154.772 250.376 153.714 250.775 153.115 251.089C152.517 251.403 152.493 251.563 153.045 251.571Z" fill="white"/>
<path d="M157.72 251.739C158.305 252.452 158.285 253.29 157.668 253.992L157.596 254.075C156.997 254.757 156.096 255.325 154.992 255.717L148.999 257.845C148.83 257.906 148.656 257.961 148.478 258.013C145.03 259.01 140.891 258.138 139.232 256.065L138.331 254.938C136.824 253.054 137.873 250.79 140.783 249.646L153.702 244.569C153.726 244.559 153.733 244.54 153.717 244.525C153.702 244.51 153.669 244.506 153.645 244.516L140.726 249.594C137.772 250.755 136.707 253.053 138.237 254.965L139.138 256.092C140.822 258.196 145.024 259.082 148.524 258.069C148.704 258.017 148.88 257.961 149.052 257.9L155.046 255.771C156.166 255.373 157.081 254.796 157.688 254.104L157.761 254.022C158.393 253.301 158.413 252.442 157.814 251.711L156.348 249.923C156.336 249.907 156.305 249.901 156.28 249.908C154.544 250.376 153.479 250.726 153.079 250.961C152.896 251.069 152.794 251.205 152.753 251.37C152.727 251.473 152.725 251.562 152.735 251.721C152.745 251.861 152.744 251.904 152.726 251.942C152.577 252.256 150.801 252.932 147.43 253.948C146.718 254.162 145.852 254.012 145.439 253.603C145.117 253.282 145.287 252.866 145.82 252.672C145.885 252.648 145.955 252.628 146.027 252.613L152.644 251.202C152.671 251.197 152.686 251.179 152.676 251.162C152.666 251.146 152.636 251.137 152.609 251.143L145.992 252.553C145.913 252.57 145.837 252.592 145.765 252.618C145.183 252.83 144.997 253.285 145.35 253.635C145.79 254.073 146.716 254.233 147.476 254.004C150.893 252.975 152.665 252.301 152.826 251.959C152.849 251.911 152.85 251.867 152.84 251.718C152.83 251.563 152.831 251.477 152.856 251.38C152.894 251.227 152.987 251.104 153.152 251.006C153.536 250.78 154.58 250.436 156.276 249.978L157.72 251.739Z" fill="#1A1A1A"/>
<path fill-rule="evenodd" clip-rule="evenodd" d="M158.08 244.958C156.861 243.329 156.128 242.247 155.882 241.711C155.083 239.976 154.526 238.462 151.544 238.462C148.562 238.462 146.144 239.916 146.144 241.709C146.144 242.219 146.877 243.857 148.343 246.621C150.505 246.616 152.254 246.551 153.59 246.427C154.926 246.303 156.423 245.813 158.08 244.958Z" fill="#FD650B" stroke="#1A1A1A" stroke-width="0.877811" stroke-linecap="round" stroke-linejoin="round"/>
<path fill-rule="evenodd" clip-rule="evenodd" d="M158.071 244.953C156.851 243.324 156.118 242.242 155.872 241.706C155.073 239.971 154.516 238.457 151.534 238.457C148.552 238.457 146.135 239.911 146.135 241.704C146.135 242.214 146.867 243.852 148.333 246.616C150.495 246.611 152.244 246.546 153.58 246.422C154.917 246.298 156.413 245.808 158.071 244.953Z" fill="#FD650B"/>
<path d="M158.123 244.984L158.157 245.008C158.175 244.999 158.18 244.984 158.171 244.971L158.123 244.984ZM155.924 241.738L155.874 241.746L155.924 241.738ZM148.386 246.648L148.336 246.657C148.343 246.67 148.363 246.679 148.386 246.679L148.386 246.648ZM153.633 246.454L153.625 246.423L153.633 246.454ZM158.171 244.971C156.951 243.342 156.22 242.262 155.975 241.729L155.874 241.746C156.121 242.284 156.856 243.369 158.075 244.997L158.171 244.971ZM155.975 241.729C155.577 240.864 155.236 240.046 154.619 239.446C154.31 239.145 153.93 238.897 153.436 238.725C152.943 238.553 152.34 238.457 151.587 238.457V238.52C152.324 238.52 152.909 238.614 153.384 238.78C153.859 238.946 154.227 239.185 154.53 239.479C155.137 240.07 155.474 240.876 155.874 241.746L155.975 241.729ZM151.587 238.457C148.575 238.457 146.135 239.925 146.135 241.735H146.239C146.239 239.96 148.633 238.52 151.587 238.52V238.457ZM146.135 241.735C146.135 241.866 146.181 242.067 146.273 242.336C146.365 242.605 146.503 242.945 146.686 243.355C147.053 244.174 147.603 245.275 148.336 246.657L148.436 246.638C147.703 245.256 147.153 244.156 146.787 243.338C146.604 242.929 146.467 242.591 146.376 242.323C146.284 242.055 146.239 241.859 146.239 241.735H146.135ZM148.386 246.679C150.549 246.674 152.301 246.609 153.641 246.485L153.625 246.423C152.292 246.546 150.546 246.611 148.385 246.616L148.386 246.679ZM153.641 246.485C154.991 246.359 156.496 245.865 158.157 245.008L158.089 244.96C156.435 245.814 154.947 246.3 153.625 246.423L153.641 246.485Z" fill="#1A1A1A"/>
<path d="M158.118 244.94C156.9 243.312 156.167 242.231 155.922 241.698C155.89 241.628 155.748 241.317 155.709 241.233C155.239 240.214 154.914 239.694 154.391 239.257C153.73 238.704 152.826 238.426 151.534 238.426C148.523 238.426 146.082 239.893 146.082 241.704C146.082 242.219 146.815 243.857 148.283 246.626C148.29 246.639 148.31 246.648 148.333 246.648C150.497 246.643 152.249 246.578 153.588 246.453C154.935 246.328 156.44 245.836 158.104 244.977C158.122 244.968 158.127 244.953 158.118 244.94ZM153.572 246.391C152.247 246.514 150.513 246.579 148.371 246.585C146.915 243.838 146.187 242.208 146.187 241.704C146.187 239.928 148.581 238.489 151.534 238.489C152.793 238.489 153.665 238.758 154.306 239.293C154.82 239.723 155.142 240.238 155.608 241.25C155.647 241.333 155.789 241.645 155.821 241.715C156.067 242.25 156.795 243.326 158.006 244.944C156.368 245.787 154.889 246.269 153.572 246.391Z" fill="#1A1A1A"/>
<path d="M149.01 243.198C149.01 243.198 151.925 243.886 156.355 242.95C156.431 242.934 156.515 242.905 156.606 242.864C156.377 242.588 156.237 242.399 156.187 242.297C155.983 241.881 155.964 241.617 155.733 241.353C155.584 241.182 155.532 240.891 155.384 240.618C155.305 240.471 155.153 240.241 154.931 239.926C154.709 239.662 154.558 239.487 154.477 239.401C154.353 239.27 154.352 239.143 154.191 239.157C153.315 239.233 152.371 239.575 151.358 240.181C149.004 241.59 149.01 243.198 149.01 243.198Z" fill="#1A1A1A"/>
<path fill-rule="evenodd" clip-rule="evenodd" d="M150.881 240.492C151.125 240.325 151.26 240.219 151.474 240.094C151.688 239.968 151.963 239.821 152.451 239.611C152.707 240.017 152.963 240.458 153.289 241.059C153.777 241.961 153.004 242.103 152.067 241.5C151.443 241.097 151.071 240.775 150.881 240.492ZM153.649 240.44C153.823 240.448 153.918 240.902 153.971 240.98C154.001 241.023 153.966 241.073 153.894 241.091C153.828 241.107 153.752 241.091 153.717 241.054C153.513 240.836 153.412 240.705 153.413 240.662C153.417 240.551 153.475 240.433 153.649 240.44Z" fill="white"/>
<path d="M152.672 251.089C155.023 251.089 156.93 249.943 156.93 248.529C156.93 247.115 155.023 245.969 152.672 245.969C150.32 245.969 148.414 247.115 148.414 248.529C148.414 249.943 150.32 251.089 152.672 251.089Z" fill="#1A1A1A"/>
<path d="M149.058 242.983C148.69 242.001 149.231 241.067 150.685 240.179C152.139 239.291 153.167 238.86 153.75 238.887C153.778 238.889 153.741 238.894 153.744 238.877C153.746 238.86 153.738 238.857 153.709 238.856C153.692 238.855 153.724 238.823 153.707 238.823C153.075 238.819 152.048 239.257 150.61 240.135C149.132 241.037 148.58 241.992 148.956 242.996C148.962 243.013 148.99 243.024 149.019 243.02C149.047 243.016 149.064 243 149.058 242.983Z" fill="#1A1A1A"/>
<path fill-rule="evenodd" clip-rule="evenodd" d="M149.914 250.522L151.484 248.108L155.423 247.421C155.571 247.396 155.726 247.447 155.769 247.536C155.795 247.589 155.775 247.647 155.715 247.69L153.474 249.305L153.289 251.089L149.914 250.522Z" fill="white"/>
<path fill-rule="evenodd" clip-rule="evenodd" d="M151.477 248.109C150.941 248.461 150.601 248.692 150.455 248.803C149.691 249.385 149.719 249.604 150.081 249.746C150.779 250.019 151.502 250.566 151.991 250.062C152.317 249.726 152.145 249.075 151.477 248.109Z" fill="#FD650B"/>
<path d="M151.446 248.087C151.472 248.07 151.519 248.074 151.533 248.096C152.208 249.071 152.381 249.729 152.044 250.076C151.852 250.275 151.607 250.334 151.307 250.277C151.091 250.235 150.927 250.168 150.491 249.962C150.387 249.913 150.326 249.884 150.26 249.855C150.188 249.823 150.123 249.795 150.061 249.771C149.622 249.599 149.702 249.33 150.422 248.782C150.569 248.671 150.91 248.439 151.446 248.087ZM151.953 250.045C152.263 249.726 152.104 249.098 151.468 248.166C150.965 248.496 150.644 248.715 150.504 248.821C149.817 249.344 149.749 249.574 150.118 249.718C150.182 249.743 150.249 249.771 150.323 249.805C150.389 249.834 150.451 249.863 150.556 249.913C150.98 250.113 151.14 250.179 151.339 250.217C151.591 250.265 151.786 250.218 151.953 250.045ZM153.596 249.224C153.613 249.21 153.645 249.207 153.669 249.216C153.693 249.226 153.699 249.246 153.682 249.26C153.479 249.436 153.293 249.526 153.116 249.526C153.087 249.526 153.063 249.511 153.063 249.494C153.063 249.477 153.087 249.463 153.116 249.463C153.249 249.463 153.411 249.385 153.596 249.224Z" fill="#1A1A1A"/>
<path d="M148.822 243.577C149.111 243.577 149.346 243.436 149.346 243.262C149.346 243.089 149.111 242.948 148.822 242.948C148.533 242.948 148.299 243.089 148.299 243.262C148.299 243.436 148.533 243.577 148.822 243.577Z" fill="white"/>
<path d="M148.798 243.609C149.116 243.609 149.374 243.454 149.374 243.262C149.374 243.071 149.116 242.916 148.798 242.916C148.48 242.916 148.222 243.071 148.222 243.262C148.222 243.454 148.48 243.609 148.798 243.609ZM148.798 243.546C148.538 243.546 148.327 243.419 148.327 243.262C148.327 243.106 148.538 242.979 148.798 242.979C149.059 242.979 149.269 243.106 149.269 243.262C149.269 243.419 149.059 243.546 148.798 243.546Z" fill="#1A1A1A"/>
<path d="M148.798 243.441C148.98 243.441 149.13 243.362 149.13 243.262C149.13 243.163 148.98 243.084 148.798 243.084C148.616 243.084 148.467 243.163 148.467 243.262C148.467 243.362 148.616 243.441 148.798 243.441ZM148.798 243.378C148.671 243.378 148.571 243.325 148.571 243.262C148.571 243.199 148.671 243.147 148.798 243.147C148.925 243.147 149.025 243.199 149.025 243.262C149.025 243.325 148.925 243.378 148.798 243.378Z" fill="#1A1A1A"/>
<path fill-rule="evenodd" clip-rule="evenodd" d="M153.289 250.942L153.089 252.117L150.123 253.166L147.775 253.9L146.623 252.977C147.586 252.943 148.133 252.853 148.263 252.704C148.65 252.265 149.196 251.545 149.903 250.543L153.289 250.942Z" fill="white"/>
<path d="M153.301 250.89C153.327 250.893 153.345 250.908 153.343 250.924L153.143 252.099C153.141 252.109 153.132 252.118 153.118 252.123L150.149 253.173L147.8 253.907C147.778 253.914 147.75 253.91 147.734 253.898L146.583 252.975C146.558 252.955 146.58 252.926 146.621 252.925C147.565 252.892 148.1 252.803 148.219 252.669C148.604 252.231 149.15 251.511 149.857 250.51C149.867 250.496 149.891 250.488 149.915 250.491L153.301 250.89ZM149.937 250.558C149.237 251.548 148.695 252.261 148.311 252.698C148.173 252.855 147.647 252.947 146.725 252.984L147.791 253.839L150.098 253.118L153.042 252.077L153.234 250.946L149.937 250.558ZM153.064 252.069L153.039 252.093L153.042 252.077L153.064 252.069Z" fill="#1A1A1A"/>
<path fill-rule="evenodd" clip-rule="evenodd" d="M140.55 242.36C140.203 242.36 139.922 242.191 139.922 241.982C139.922 241.774 140.203 241.605 140.55 241.605C140.897 241.605 141.178 241.774 141.178 241.982C141.178 242.191 140.897 242.36 140.55 242.36ZM146.692 243.304L146.857 243.682C146.818 243.69 146.778 243.699 146.74 243.708C145.636 243.977 145.104 244.732 145.55 245.396L145.88 245.885L145.252 246.095L144.88 245.367C144.479 244.583 145.107 243.741 146.348 243.399L146.692 243.304Z" fill="white"/>
<path d="M142 243.749C142.001 243.743 141.999 243.736 141.994 243.731L140.808 242.325C140.795 242.309 140.763 242.303 140.737 242.311C140.712 242.319 140.701 242.338 140.714 242.353L141.894 243.75L141.756 244.307C141.753 244.321 141.766 244.335 141.788 244.34L142.745 244.581L144.31 246.329C144.324 246.345 144.355 246.35 144.381 246.342C144.406 246.334 144.416 246.315 144.402 246.299L142.829 244.542C142.823 244.535 142.814 244.53 142.803 244.527L141.866 244.292L142 243.749Z" fill="#1A1A1A"/>
<path d="M140.526 242.391C140.15 242.391 139.845 242.208 139.845 241.982C139.845 241.756 140.15 241.573 140.526 241.573C140.902 241.573 141.207 241.756 141.207 241.982C141.207 242.208 140.902 242.391 140.526 242.391ZM140.526 242.328C140.844 242.328 141.102 242.173 141.102 241.982C141.102 241.791 140.844 241.636 140.526 241.636C140.208 241.636 139.95 241.791 139.95 241.982C139.95 242.173 140.208 242.328 140.526 242.328ZM146.647 243.276C146.676 243.267 146.711 243.277 146.719 243.296L146.884 243.674C146.891 243.69 146.876 243.706 146.85 243.712C146.811 243.719 146.773 243.728 146.736 243.737C145.659 243.999 145.139 244.736 145.575 245.384L145.904 245.873C145.914 245.888 145.904 245.905 145.881 245.913L145.253 246.122C145.224 246.132 145.187 246.123 145.178 246.104L144.806 245.377C144.397 244.577 145.037 243.719 146.302 243.37L146.647 243.276ZM146.346 243.428C145.129 243.763 144.513 244.589 144.906 245.358L145.259 246.048L145.79 245.871L145.478 245.407C145.02 244.728 145.566 243.954 146.696 243.679C146.721 243.673 146.745 243.667 146.77 243.662L146.634 243.348L146.346 243.428Z" fill="#1A1A1A"/>
<path d="M141.855 254.712C142.77 255.461 143.352 256.658 143.605 258.304L143.501 258.31C143.246 256.65 142.655 255.453 141.731 254.717C140.976 254.115 140.165 253.62 139.331 253.22C138.718 252.927 138.145 252.71 137.642 252.558L137.689 252.502C138.198 252.656 138.777 252.875 139.396 253.171C140.229 253.57 141.038 254.063 141.792 254.661L145.308 253.516C145.333 253.508 145.365 253.513 145.379 253.529C145.393 253.544 145.383 253.563 145.358 253.571L141.855 254.712ZM146.85 254.117C146.836 254.101 146.845 254.082 146.871 254.074C146.896 254.066 146.928 254.071 146.942 254.086L150.056 257.515C150.069 257.531 150.06 257.55 150.035 257.558C150.009 257.566 149.977 257.561 149.964 257.546L146.85 254.117ZM145.707 252.67C145.72 252.685 145.709 252.704 145.683 252.712C145.658 252.719 145.626 252.713 145.613 252.697L142.529 248.92C142.516 248.905 142.527 248.886 142.553 248.878C142.579 248.871 142.61 248.877 142.623 248.893L145.707 252.67Z" fill="#1A1A1A"/>
<path d="M148.468 246.658C148.455 246.642 148.424 246.636 148.398 246.644C148.372 246.651 148.362 246.67 148.374 246.686L148.468 246.658ZM149.92 248.574C149.933 248.59 149.964 248.596 149.99 248.589C150.016 248.581 150.027 248.562 150.014 248.546L149.92 248.574ZM148.374 246.686L149.92 248.574L150.014 248.546L148.468 246.658L148.374 246.686Z" fill="#1A1A1A"/>
<path d="M153.206 252.124C153.193 252.108 153.162 252.102 153.136 252.11C153.11 252.118 153.1 252.137 153.113 252.152L153.206 252.124ZM155.878 255.421C155.891 255.437 155.922 255.443 155.948 255.435C155.974 255.427 155.984 255.408 155.971 255.393L155.878 255.421ZM153.113 252.152L155.878 255.421L155.971 255.393L153.206 252.124L153.113 252.152Z" fill="#1A1A1A"/>
<path fill-rule="evenodd" clip-rule="evenodd" d="M153.337 248.087C152.998 247.941 152.721 247.905 152.505 247.978C152.181 248.087 151.765 248.307 151.996 248.581C152.228 248.854 152.412 249.074 152.644 249.074C152.875 249.074 153.291 249.101 153.522 248.8C153.676 248.599 153.615 248.361 153.337 248.087Z" fill="#FD650B"/>
<path fill-rule="evenodd" clip-rule="evenodd" d="M153.317 248.213C153.293 248.362 153.211 248.458 153.07 248.501C152.947 248.538 152.755 248.56 152.493 248.566C152.377 248.569 152.28 248.515 152.275 248.445C152.274 248.422 152.283 248.398 152.303 248.377C152.447 248.228 152.575 248.136 152.686 248.102C152.803 248.066 152.956 248.058 153.144 248.077C153.252 248.088 153.328 248.148 153.317 248.213Z" fill="white"/>
<path d="M153.23 248.263C153.194 248.296 153.125 248.319 153.044 248.319C152.929 248.319 152.835 248.272 152.835 248.214C152.835 248.157 152.924 248.111 153.036 248.109C152.892 248.1 152.775 248.11 152.684 248.137C152.584 248.168 152.462 248.256 152.323 248.4C152.308 248.416 152.301 248.433 152.302 248.451C152.305 248.503 152.378 248.544 152.465 248.542C152.72 248.536 152.906 248.515 153.021 248.48C153.129 248.447 153.199 248.375 153.23 248.263ZM153.131 248.119C153.149 248.122 153.165 248.127 153.179 248.133C153.164 248.128 153.148 248.122 153.131 248.119ZM153.344 248.224C153.318 248.382 153.227 248.487 153.068 248.536C152.937 248.576 152.738 248.598 152.469 248.605C152.325 248.608 152.203 248.541 152.197 248.454C152.195 248.424 152.207 248.394 152.232 248.369C152.381 248.214 152.514 248.118 152.637 248.081C152.765 248.042 152.928 248.033 153.126 248.053C153.262 248.067 153.357 248.141 153.344 248.224Z" fill="#1A1A1A"/>
<path fill-rule="evenodd" clip-rule="evenodd" d="M155.524 247.407C155.361 247.382 155.189 247.399 155.007 247.457V247.457C154.973 247.468 154.961 247.494 154.979 247.514C154.983 247.519 154.988 247.522 154.994 247.526C155.063 247.563 155.147 247.584 155.245 247.589C155.375 247.596 155.527 247.596 155.699 247.589C155.769 247.496 155.71 247.435 155.524 247.407Z" fill="#FD650B"/>
<path d="M155.572 247.372C155.395 247.345 155.21 247.363 155.017 247.425C154.958 247.444 154.936 247.489 154.967 247.524C154.974 247.532 154.983 247.539 154.994 247.544C155.071 247.586 155.166 247.61 155.275 247.616C155.408 247.623 155.562 247.623 155.737 247.616C155.756 247.615 155.773 247.608 155.781 247.597C155.865 247.485 155.788 247.404 155.572 247.372ZM155.284 247.553C155.197 247.549 155.124 247.53 155.063 247.498C155.062 247.497 155.061 247.496 155.06 247.495C155.055 247.49 155.058 247.483 155.067 247.48C155.237 247.426 155.396 247.41 155.546 247.433C155.69 247.454 155.734 247.49 155.697 247.554C155.541 247.56 155.403 247.559 155.284 247.553Z" fill="#1A1A1A"/>
<path d="M172.137 256.628C172.426 256.628 172.66 256.487 172.66 256.313C172.66 256.14 172.426 255.999 172.137 255.999C171.847 255.999 171.613 256.14 171.613 256.313C171.613 256.487 171.847 256.628 172.137 256.628Z" fill="white"/>
<path d="M172.111 256.66C172.429 256.66 172.687 256.505 172.687 256.313C172.687 256.122 172.429 255.967 172.111 255.967C171.793 255.967 171.535 256.122 171.535 256.313C171.535 256.505 171.793 256.66 172.111 256.66ZM172.111 256.597C171.851 256.597 171.64 256.47 171.64 256.313C171.64 256.157 171.851 256.03 172.111 256.03C172.371 256.03 172.582 256.157 172.582 256.313C172.582 256.47 172.371 256.597 172.111 256.597Z" fill="#1A1A1A"/>
<path d="M180.023 251.634C180.312 251.634 180.547 251.493 180.547 251.319C180.547 251.146 180.312 251.005 180.023 251.005C179.734 251.005 179.5 251.146 179.5 251.319C179.5 251.493 179.734 251.634 180.023 251.634Z" fill="white"/>
<path d="M180.023 251.666C180.341 251.666 180.599 251.511 180.599 251.319C180.599 251.128 180.341 250.973 180.023 250.973C179.705 250.973 179.447 251.128 179.447 251.319C179.447 251.511 179.705 251.666 180.023 251.666ZM180.023 251.603C179.763 251.603 179.552 251.476 179.552 251.319C179.552 251.163 179.763 251.036 180.023 251.036C180.283 251.036 180.494 251.163 180.494 251.319C180.494 251.476 180.283 251.603 180.023 251.603Z" fill="#1A1A1A"/>
<path d="M172.111 256.492C172.292 256.492 172.442 256.413 172.442 256.313C172.442 256.214 172.292 256.135 172.111 256.135C171.929 256.135 171.779 256.214 171.779 256.313C171.779 256.413 171.929 256.492 172.111 256.492ZM172.111 256.429C171.984 256.429 171.884 256.376 171.884 256.313C171.884 256.25 171.984 256.198 172.111 256.198C172.237 256.198 172.337 256.25 172.337 256.313C172.337 256.376 172.237 256.429 172.111 256.429Z" fill="#1A1A1A"/>
<path d="M180.023 251.498C180.204 251.498 180.354 251.419 180.354 251.32C180.354 251.22 180.204 251.141 180.023 251.141C179.841 251.141 179.691 251.22 179.691 251.32C179.691 251.419 179.841 251.498 180.023 251.498ZM180.023 251.435C179.896 251.435 179.796 251.382 179.796 251.32C179.796 251.257 179.896 251.204 180.023 251.204C180.149 251.204 180.25 251.257 180.25 251.32C180.25 251.382 180.149 251.435 180.023 251.435Z" fill="#1A1A1A"/>
<path d="M149.286 243.285C149.835 243.586 151.032 243.721 152.883 243.692C154.73 243.664 156.042 243.495 156.82 243.184C156.844 243.174 156.85 243.154 156.834 243.14C156.818 243.125 156.785 243.121 156.761 243.131C156.004 243.435 154.709 243.602 152.88 243.629C151.055 243.657 149.879 243.526 149.357 243.239C149.336 243.227 149.302 243.228 149.283 243.241C149.263 243.254 149.265 243.274 149.286 243.285Z" fill="#1A1A1A"/>
<path d="M170.258 243.236C168.815 243.782 167.821 244.302 167.276 244.798C166.731 245.293 166.241 246.128 165.802 247.305L165.905 247.319C166.34 246.149 166.827 245.32 167.363 244.832C167.899 244.346 168.882 243.831 170.314 243.289L170.258 243.236Z" fill="#1A1A1A"/>
<path fill-rule="evenodd" clip-rule="evenodd" d="M150.035 250.356C150.598 250.477 151.119 250.568 151.597 250.631C152.065 250.692 152.615 250.745 153.247 250.789C153.381 250.799 153.477 250.872 153.462 250.952C153.46 250.958 153.459 250.964 153.456 250.971L153.449 250.987C153.415 251.071 153.281 251.125 153.139 251.113C152.551 251.062 152.003 251.007 151.492 250.945C150.975 250.883 150.453 250.776 149.925 250.623C149.811 250.59 149.75 250.513 149.781 250.438C149.807 250.375 149.913 250.337 150.017 250.353C150.023 250.354 150.029 250.355 150.035 250.356Z" fill="white"/>
<path d="M152.106 250.749C151.927 250.73 151.757 250.71 151.597 250.689C151.402 250.663 151.199 250.631 150.988 250.59L150.912 250.787C151.124 250.825 151.331 250.856 151.535 250.88C151.697 250.9 151.863 250.919 152.033 250.937L152.106 250.749ZM152.209 250.76L152.136 250.948C152.468 250.983 152.815 251.016 153.176 251.047C153.265 251.055 153.348 251.021 153.37 250.969L153.377 250.952C153.378 250.949 153.379 250.945 153.38 250.942C153.389 250.896 153.334 250.854 153.258 250.849C152.879 250.822 152.529 250.792 152.209 250.76ZM150.888 250.571C150.616 250.516 150.33 250.45 150.032 250.372C150.025 250.37 150.018 250.369 150.011 250.368C149.942 250.358 149.872 250.383 149.855 250.424L149.844 250.451C149.823 250.501 149.866 250.552 149.944 250.572C150.24 250.65 150.529 250.715 150.812 250.768L150.888 250.571ZM150.073 250.314C150.638 250.462 151.153 250.566 151.62 250.627C152.088 250.689 152.638 250.741 153.27 250.786C153.404 250.795 153.5 250.868 153.484 250.949C153.483 250.955 153.481 250.961 153.479 250.967L153.472 250.984C153.437 251.067 153.303 251.122 153.161 251.109C152.574 251.059 152.025 251.003 151.515 250.942C150.999 250.88 150.462 250.776 149.902 250.63C149.777 250.598 149.709 250.515 149.742 250.436L149.754 250.409C149.785 250.334 149.911 250.288 150.037 250.307C150.049 250.309 150.062 250.311 150.073 250.314Z" fill="#1A1A1A"/>
<path fill-rule="evenodd" clip-rule="evenodd" d="M143.832 246.913L144.32 246.787L144.809 247.396L144.32 247.585L143.832 246.913ZM145.472 247.144C145.342 247.144 145.211 247.131 145.123 247.081C145.029 247.028 144.984 246.934 144.984 246.85C144.984 246.783 145.025 246.69 145.088 246.64C145.178 246.57 145.314 246.556 145.472 246.556C145.613 246.556 145.732 246.562 145.821 246.619C145.903 246.672 145.961 246.773 145.961 246.85C145.961 246.947 145.907 247.049 145.786 247.102C145.705 247.138 145.581 247.144 145.472 247.144Z" fill="#FD650B"/>
<path d="M143.797 246.897L144.38 246.746L144.91 247.407L144.331 247.631L143.797 246.897ZM144.378 247.538L144.776 247.384L144.329 246.828L143.935 246.93L144.378 247.538ZM145.506 247.175C145.339 247.175 145.211 247.155 145.121 247.104C145.021 247.047 144.965 246.949 144.965 246.85C144.965 246.773 145.013 246.675 145.081 246.621C145.172 246.549 145.302 246.525 145.506 246.525C145.701 246.525 145.803 246.54 145.893 246.598C145.983 246.655 146.047 246.763 146.047 246.85C146.047 246.965 145.979 247.071 145.851 247.127C145.77 247.164 145.661 247.175 145.506 247.175ZM145.506 247.113C145.64 247.113 145.731 247.103 145.789 247.077C145.886 247.033 145.942 246.947 145.942 246.85C145.942 246.779 145.887 246.686 145.817 246.641C145.752 246.599 145.674 246.588 145.506 246.588C145.331 246.588 145.231 246.607 145.164 246.66C145.111 246.701 145.07 246.786 145.07 246.85C145.07 246.933 145.117 247.015 145.193 247.058C145.26 247.096 145.363 247.113 145.506 247.113Z" fill="#1A1A1A"/>
<path d="M171.194 238.08H165.121C165.006 238.08 164.912 238.136 164.912 238.205C164.912 238.275 165.006 238.331 165.121 238.331H171.194C171.31 238.331 171.403 238.275 171.403 238.205C171.403 238.136 171.31 238.08 171.194 238.08Z" fill="white"/>
<path d="M165.121 238.08H171.194C171.31 238.08 171.403 238.136 171.403 238.205C171.403 238.275 171.31 238.331 171.194 238.331H165.121C165.006 238.331 164.912 238.275 164.912 238.205C164.912 238.136 165.006 238.08 165.121 238.08ZM165.121 238.143C165.063 238.143 165.017 238.171 165.017 238.205C165.017 238.24 165.063 238.268 165.121 238.268H171.194C171.252 238.268 171.299 238.24 171.299 238.205C171.299 238.171 171.252 238.143 171.194 238.143H165.121Z" fill="#1A1A1A"/>
<path d="M155.995 255.316L153.238 252.063C153.199 252.017 153.104 251.998 153.027 252.022C152.95 252.046 152.919 252.102 152.958 252.149L155.715 255.402C155.755 255.448 155.849 255.467 155.927 255.443C156.004 255.419 156.035 255.363 155.995 255.316Z" fill="white" stroke="#1A1A1A" stroke-width="0.877811"/>
<path fill-rule="evenodd" clip-rule="evenodd" d="M154.31 246.947C154.111 247.048 153.179 246.618 152.98 246.568C152.873 246.54 152.823 246.466 152.868 246.402C152.91 246.342 153.018 246.311 153.12 246.329C153.733 246.435 154.078 246.513 154.156 246.56C154.354 246.682 154.509 246.846 154.31 246.947Z" fill="white"/>
<path fill-rule="evenodd" clip-rule="evenodd" d="M159.001 249.808L161.086 249.014C161.118 249.002 161.161 249.007 161.182 249.027C161.183 249.027 161.183 249.028 161.183 249.028L161.981 249.858C162 249.878 161.99 249.902 161.959 249.914L159.911 250.709C159.879 250.721 159.835 250.716 159.815 250.696C159.814 250.696 159.814 250.695 159.813 250.695L158.979 249.865C158.959 249.845 158.969 249.82 159.001 249.808Z" fill="white"/>
<path d="M158.904 249.821L161.094 248.998C161.127 248.985 161.17 248.991 161.19 249.011L162.078 249.865C162.098 249.885 162.088 249.911 162.056 249.923L159.865 250.746C159.833 250.758 159.79 250.752 159.769 250.732L158.881 249.878C158.861 249.859 158.871 249.833 158.904 249.821ZM158.989 249.863L159.839 250.681L161.971 249.881L161.12 249.062L158.989 249.863Z" fill="#1A1A1A"/>
<path d="M159.431 249.833L160.852 249.3C160.884 249.287 160.927 249.293 160.948 249.313L161.54 249.882C161.56 249.902 161.55 249.928 161.518 249.94L160.097 250.474C160.064 250.486 160.021 250.48 160.001 250.461L159.409 249.891C159.388 249.871 159.398 249.846 159.431 249.833ZM160.071 250.409L161.432 249.898L160.878 249.364L159.516 249.876L160.071 250.409Z" fill="#1A1A1A"/>
<path d="M54.3098 3.68876V3.17555C54.3098 3.15384 54.3394 3.13607 54.3755 3.13607C54.4116 3.13607 54.4412 3.15384 54.4412 3.17555V3.68876H55.2948C55.3309 3.68876 55.3605 3.70653 55.3605 3.72824C55.3605 3.74995 55.3309 3.76772 55.2948 3.76772H54.4412V4.28092C54.4412 4.30264 54.4116 4.3204 54.3755 4.3204C54.3394 4.3204 54.3098 4.30264 54.3098 4.28092V3.76772H53.4562C53.4201 3.76772 53.3905 3.74995 53.3905 3.72824C53.3905 3.70653 53.4201 3.68876 53.4562 3.68876H54.3098Z" fill="#1A1A1A"/>
<path d="M0.919301 3.19686V2.68365C0.919301 2.66194 0.948851 2.64418 0.984965 2.64418C1.02108 2.64418 1.05063 2.66194 1.05063 2.68365V3.19686H1.90427C1.94038 3.19686 1.96993 3.21463 1.96993 3.23634C1.96993 3.25805 1.94038 3.27582 1.90427 3.27582H1.05063V3.78903C1.05063 3.81074 1.02108 3.8285 0.984965 3.8285C0.948851 3.8285 0.919301 3.81074 0.919301 3.78903V3.27582H0.0656644C0.0295489 3.27582 0 3.25805 0 3.23634C0 3.21463 0.0295489 3.19686 0.0656644 3.19686H0.919301Z" fill="#1A1A1A"/>
<path d="M53.593 23.1816V22.6683C53.593 22.6466 53.6226 22.6289 53.6587 22.6289C53.6948 22.6289 53.7244 22.6466 53.7244 22.6683V23.1816H54.578C54.6141 23.1816 54.6437 23.1993 54.6437 23.221C54.6437 23.2427 54.6141 23.2605 54.578 23.2605H53.7244V23.7737C53.7244 23.7954 53.6948 23.8132 53.6587 23.8132C53.6226 23.8132 53.593 23.7954 53.593 23.7737V23.2605H52.7394C52.7033 23.2605 52.6737 23.2427 52.6737 23.221C52.6737 23.1993 52.7033 23.1816 52.7394 23.1816H53.593Z" fill="#1A1A1A"/>
<path d="M2.66566 12.6095V12.2147C2.66566 12.193 2.69521 12.1752 2.73133 12.1752C2.76744 12.1752 2.79699 12.193 2.79699 12.2147V12.6095H3.45364C3.48976 12.6095 3.5193 12.6273 3.5193 12.649C3.5193 12.6707 3.48976 12.6885 3.45364 12.6885H2.79699V13.0832C2.79699 13.1049 2.76744 13.1227 2.73133 13.1227C2.69521 13.1227 2.66566 13.1049 2.66566 13.0832V12.6885H2.00902C1.97291 12.6885 1.94336 12.6707 1.94336 12.649C1.94336 12.6273 1.97291 12.6095 2.00902 12.6095H2.66566Z" fill="#1A1A1A"/>
<path d="M42.83 12.1594V11.7843C42.83 11.7626 42.8596 11.7449 42.8957 11.7449C42.9318 11.7449 42.9614 11.7626 42.9614 11.7843V12.1594H43.5852C43.6213 12.1594 43.6508 12.1771 43.6508 12.1988C43.6508 12.2206 43.6213 12.2383 43.5852 12.2383H42.9614V12.6134C42.9614 12.6351 42.9318 12.6528 42.8957 12.6528C42.8596 12.6528 42.83 12.6351 42.83 12.6134V12.2383H42.2062C42.1701 12.2383 42.1406 12.2206 42.1406 12.1988C42.1406 12.1771 42.1701 12.1594 42.2062 12.1594H42.83Z" fill="#1A1A1A"/>
<path d="M30.0449 0.414515V0.0394777C30.0449 0.0177649 30.0744 0 30.1106 0C30.1467 0 30.1762 0.0177649 30.1762 0.0394777V0.414515H30.8C30.8362 0.414515 30.8657 0.43228 30.8657 0.453993C30.8657 0.475706 30.8362 0.493471 30.8 0.493471H30.1762V0.868511C30.1762 0.890218 30.1467 0.907987 30.1106 0.907987C30.0744 0.907987 30.0449 0.890218 30.0449 0.868511V0.493471H29.4211C29.385 0.493471 29.3554 0.475706 29.3554 0.453993C29.3554 0.43228 29.385 0.414515 29.4211 0.414515H30.0449Z" fill="#1A1A1A"/>
<path d="M43.9297 11.2278C43.9297 11.2115 43.9514 11.1983 43.9787 11.1983C44.0059 11.1983 44.0278 11.2114 44.0278 11.2278L44.0488 13.8379C44.0538 14.4757 44.9182 14.99 45.979 14.987C46.2266 14.9864 46.4711 14.957 46.6995 14.9003L47.6248 14.672C48.5217 14.4505 49.5471 14.7082 49.9158 15.2471C50.081 15.4892 50.0909 15.7595 49.9436 16.0057L49.2275 17.2011C48.864 17.8079 49.0032 18.4827 49.6028 19.0173L50.4809 19.8011C50.4964 19.8147 50.4901 19.8329 50.4674 19.8422C50.4449 19.8512 50.4144 19.8478 50.3989 19.8341L49.52 19.0507C48.9026 18.4999 48.7594 17.8056 49.1339 17.181L49.8499 15.9857C49.9895 15.7533 49.9801 15.4982 49.8237 15.2694C49.4759 14.7607 48.508 14.5174 47.6617 14.7265L46.7364 14.9548C46.496 15.014 46.2385 15.0449 45.9785 15.0459C44.8632 15.0489 43.955 14.5084 43.95 13.8379L43.9297 11.2278Z" fill="#1A1A1A"/>
<path d="M96.5188 167.805V154.758H103.853V151.176H96.5188V131.989H92.9372V151.176H67.0984L88.247 106.406H84.3243L63.1757 151.176V154.758H92.9372V167.805H96.5188ZM141.349 169.085C151.582 169.085 160.025 160.642 160.025 150.409V123.803C160.025 113.569 151.582 105.127 141.349 105.127C131.116 105.127 122.673 113.569 122.673 123.803V150.409C122.673 160.642 131.116 169.085 141.349 169.085ZM141.349 165.503C133.077 165.503 126.255 158.681 126.255 150.409V123.803C126.255 115.531 133.077 108.709 141.349 108.709C149.621 108.709 156.443 115.531 156.443 123.803V150.409C156.443 158.681 149.621 165.503 141.349 165.503ZM212.186 167.805V154.758H219.52V151.176H212.186V131.989H208.605V151.176H182.767L203.914 106.406H199.992L178.844 151.176V154.758H208.605V167.805H212.186Z" fill="#6E6E6E"/>
<path d="M96.5188 167.805V154.758H103.853V151.176H96.5188V131.989H92.9372V151.176H67.0984L88.247 106.406H84.3243L63.1757 151.176V154.758H92.9372V167.805H96.5188ZM141.349 169.085C151.582 169.085 160.025 160.642 160.025 150.409V123.803C160.025 113.569 151.582 105.127 141.349 105.127C131.116 105.127 122.673 113.569 122.673 123.803V150.409C122.673 160.642 131.116 169.085 141.349 169.085ZM141.349 165.503C133.077 165.503 126.255 158.681 126.255 150.409V123.803C126.255 115.531 133.077 108.709 141.349 108.709C149.621 108.709 156.443 115.531 156.443 123.803V150.409C156.443 158.681 149.621 165.503 141.349 165.503ZM212.186 167.805V154.758H219.52V151.176H212.186V131.989H208.605V151.176H182.767L203.914 106.406H199.992L178.844 151.176V154.758H208.605V167.805H212.186Z" fill="#6E6E6E"/>
<path d="M96.5188 167.805V154.758H103.853V151.176H96.5188V131.989H92.9372V151.176H67.0984L88.247 106.406H84.3243L63.1757 151.176V154.758H92.9372V167.805H96.5188ZM141.349 169.085C151.582 169.085 160.025 160.642 160.025 150.409V123.803C160.025 113.569 151.582 105.127 141.349 105.127C131.116 105.127 122.673 113.569 122.673 123.803V150.409C122.673 160.642 131.116 169.085 141.349 169.085ZM141.349 165.503C133.077 165.503 126.255 158.681 126.255 150.409V123.803C126.255 115.531 133.077 108.709 141.349 108.709C149.621 108.709 156.443 115.531 156.443 123.803V150.409C156.443 158.681 149.621 165.503 141.349 165.503ZM212.186 167.805V154.758H219.52V151.176H212.186V131.989H208.605V151.176H182.767L203.914 106.406H199.992L178.844 151.176V154.758H208.605V167.805H212.186Z" fill="#6E6E6E"/>
</svg>
