<svg width="17" height="18" viewBox="0 0 17 18" fill="none" xmlns="http://www.w3.org/2000/svg">
<path d="M14.041 5.7481C15.6756 5.7481 17.0008 4.46135 17.0008 2.87406C17.0008 1.28675 15.6756 0 14.041 0C12.4063 0 11.0811 1.28675 11.0811 2.87406C11.0811 4.46135 12.4063 5.7481 14.041 5.7481Z" fill="#636363"/>
<path d="M2.95982 5.7481C4.59449 5.7481 5.91964 4.46135 5.91964 2.87406C5.91964 1.28675 4.59449 0 2.95982 0C1.32515 0 0 1.28675 0 2.87406C0 4.46135 1.32515 5.7481 2.95982 5.7481Z" fill="#636363"/>
<path d="M14.041 17.6909C15.6756 17.6909 17.0008 16.4042 17.0008 14.8169C17.0008 13.2296 15.6756 11.9428 14.041 11.9428C12.4063 11.9428 11.0811 13.2296 11.0811 14.8169C11.0811 16.4042 12.4063 17.6909 14.041 17.6909Z" fill="#636363"/>
<path d="M2.95982 17.6909C4.59449 17.6909 5.91964 16.4042 5.91964 14.8169C5.91964 13.2296 4.59449 11.9428 2.95982 11.9428C1.32515 11.9428 0 13.2296 0 14.8169C0 16.4042 1.32515 17.6909 2.95982 17.6909Z" fill="#636363"/>
</svg>
