<svg width="28" height="28" viewBox="0 0 28 28" fill="none" xmlns="http://www.w3.org/2000/svg">
<path d="M10.1818 28H17.8182V25.4545H10.1818V28ZM17.8182 28C21.1255 28 23.7718 27.3463 25.559 25.559C27.3463 23.7718 28 21.1255 28 17.8182H25.4545C25.4545 20.8745 24.8355 22.6827 23.7592 23.7592C22.6827 24.8355 20.8745 25.4545 17.8182 25.4545V28ZM28 17.8182V10.1818H25.4545V17.8182H28ZM28 10.1818C28 6.87447 27.3463 4.22823 25.559 2.44096C23.7718 0.653675 21.1255 0 17.8182 0V2.54545C20.8745 2.54545 22.6827 3.16451 23.7592 4.24086C24.8355 5.31722 25.4545 7.12553 25.4545 10.1818H28ZM17.8182 0H10.1818V2.54545H17.8182V0ZM10.1818 0C6.87447 0 4.22823 0.653675 2.44096 2.44096C0.653675 4.22823 0 6.87447 0 10.1818H2.54545C2.54545 7.12553 3.16451 5.31722 4.24086 4.24086C5.31722 3.16451 7.12553 2.54545 10.1818 2.54545V0ZM0 10.1818V17.8182H2.54545V10.1818H0ZM0 17.8182C0 21.1255 0.653675 23.7718 2.44096 25.559C4.22823 27.3463 6.87447 28 10.1818 28V25.4545C7.12553 25.4545 5.31722 24.8355 4.24086 23.7592C3.16451 22.6827 2.54545 20.8745 2.54545 17.8182H0Z" fill="#FD650B"/>
</svg>
