<svg width="19" height="18" viewBox="0 0 19 18" fill="none" xmlns="http://www.w3.org/2000/svg">
<path d="M4.43333 16.5511C4.43333 16.7515 4.37762 16.9475 4.27323 17.1141C4.16884 17.2807 4.02047 17.4106 3.84689 17.4872C3.67329 17.564 3.48228 17.5841 3.29799 17.545C3.11372 17.5058 2.94444 17.4093 2.81158 17.2676C2.67873 17.1259 2.58825 16.9454 2.55158 16.7488C2.51493 16.5522 2.53375 16.3484 2.60564 16.1633C2.67755 15.9781 2.79931 15.8199 2.95554 15.7085C3.11176 15.5972 3.29544 15.5378 3.48333 15.5378C3.73529 15.5378 3.97693 15.6445 4.15508 15.8346C4.33325 16.0246 4.43333 16.2824 4.43333 16.5511ZM5.7 13.1733C5.51211 13.1733 5.32843 13.2328 5.17221 13.3441C5.01598 13.4554 4.89422 13.6137 4.82231 13.7988C4.75042 13.984 4.7316 14.1877 4.76825 14.3843C4.80491 14.581 4.89539 14.7615 5.02825 14.9032C5.16111 15.0449 5.33039 15.1414 5.51466 15.1805C5.69895 15.2197 5.88996 15.1995 6.06355 15.1228C6.23714 15.0462 6.38551 14.9162 6.48989 14.7497C6.59429 14.583 6.65 14.387 6.65 14.1866C6.65 13.9179 6.54991 13.6601 6.37175 13.4701C6.19359 13.2801 5.95196 13.1733 5.7 13.1733ZM0.95 12.8355C0.762108 12.8355 0.578435 12.895 0.422208 13.0063C0.265982 13.1177 0.144219 13.2759 0.0723149 13.461C0.000411622 13.6462 -0.0184015 13.85 0.0182544 14.0466C0.0549104 14.2432 0.145389 14.4237 0.278249 14.5654C0.411109 14.7071 0.580383 14.8036 0.764664 14.8427C0.948946 14.8819 1.13996 14.8618 1.31355 14.785C1.48714 14.7084 1.63551 14.5785 1.73989 14.4119C1.84429 14.2452 1.9 14.0493 1.9 13.8489C1.9 13.5802 1.79991 13.3224 1.62175 13.1324C1.44359 12.9423 1.20196 12.8355 0.95 12.8355ZM4.11667 11.4844C4.11667 11.284 4.06095 11.0881 3.95656 10.9215C3.85218 10.7548 3.7038 10.6249 3.53022 10.5482C3.35663 10.4715 3.16561 10.4515 2.98133 10.4906C2.79705 10.5297 2.62778 10.6262 2.49492 10.7679C2.36206 10.9096 2.27158 11.0902 2.23492 11.2867C2.19826 11.4833 2.21708 11.6871 2.28898 11.8723C2.36088 12.0574 2.48265 12.2156 2.63887 12.327C2.7951 12.4383 2.97877 12.4978 3.16667 12.4978C3.41862 12.4978 3.66026 12.391 3.83842 12.2009C4.01658 12.0109 4.11667 11.7531 4.11667 11.4844ZM18.3667 5.06627e-06H16.0957C15.9292 -0.000482626 15.7644 0.0342443 15.6107 0.102175C15.4569 0.170106 15.3173 0.269892 15.2 0.395755L12.9957 2.747L3.0098 4.52227C2.78024 4.5631 2.56566 4.67058 2.3896 4.83295C2.21356 4.99532 2.08285 5.20628 2.01182 5.44269C1.9408 5.67909 1.93221 5.9318 1.98699 6.17307C2.04179 6.41434 2.15782 6.63485 2.32239 6.81039L10.0819 15.0871C10.2465 15.2627 10.4532 15.3865 10.6794 15.445C10.9056 15.5034 11.1425 15.4943 11.3641 15.4185C11.5857 15.3428 11.7835 15.2033 11.9357 15.0156C12.0881 14.8277 12.1888 14.5989 12.2271 14.354L13.8914 3.70241V3.70236L16.0957 1.35111H18.3667C18.5347 1.35111 18.6957 1.27994 18.8145 1.15325C18.9333 1.02656 19 0.854728 19 0.67556C19 0.496391 18.9333 0.324561 18.8145 0.197871C18.6957 0.0711795 18.5347 5.06627e-06 18.3667 5.06627e-06Z" fill="#636363"/>
</svg>
