<svg width="24" height="24" viewBox="0 0 24 24" fill="none" xmlns="http://www.w3.org/2000/svg">
<path d="M13.3281 16.3469L12.8946 17.2481L12.9002 17.2507L13.3281 16.3469ZM14.0688 16.2907L13.5133 15.4591L13.5092 15.4619L14.0688 16.2907ZM16.4125 14.725L16.968 15.5566L16.9738 15.5526L16.4125 14.725ZM17.125 14.6594L16.7243 15.5756L16.7304 15.5783L17.125 14.6594ZM21.5125 16.5438L21.1178 17.4627L21.1282 17.467L21.5125 16.5438ZM21.9625 17.3219L20.9706 17.1945V17.1948L21.9625 17.3219ZM17.5 21.25V22.25H17.5002L17.5 21.25ZM4.75 8.50004L3.75 8.49981V8.50004H4.75ZM8.67812 4.03753L8.80521 5.02943L8.80553 5.02938L8.67812 4.03753ZM9.45625 4.48753L8.53297 4.87181L8.5371 4.88145L9.45625 4.48753ZM11.3406 8.88441L10.4215 9.27834L10.4234 9.28278L11.3406 8.88441ZM11.2844 9.58754L12.12 10.1369L12.1266 10.1267L11.2844 9.58754ZM9.71875 11.9688L8.88315 11.4194L8.87922 11.4255L9.71875 11.9688ZM9.67187 12.7L8.76984 13.1317L8.77185 13.1359L9.67187 12.7ZM8.77185 13.1359C9.64209 14.933 11.0953 16.3824 12.8946 17.2481L13.7617 15.4458C12.3695 14.776 11.2452 13.6546 10.5719 12.2642L8.77185 13.1359ZM12.9002 17.2507C13.1748 17.3808 13.4786 17.437 13.7816 17.414L13.6302 15.4198C13.6735 15.4165 13.7168 15.4245 13.7561 15.4431L12.9002 17.2507ZM13.7816 17.414C14.0846 17.391 14.3764 17.2895 14.6283 17.1195L13.5092 15.4619C13.5452 15.4376 13.5869 15.4231 13.6302 15.4198L13.7816 17.414ZM14.6242 17.1222L16.968 15.5566L15.857 13.8935L13.5133 15.4591L14.6242 17.1222ZM16.9738 15.5526C16.9375 15.5772 16.8956 15.5922 16.852 15.5963L16.6686 13.6047C16.3758 13.6317 16.0945 13.7324 15.8512 13.8974L16.9738 15.5526ZM16.852 15.5963C16.8084 15.6003 16.7644 15.5932 16.7243 15.5756L17.5257 13.7432C17.2563 13.6254 16.9614 13.5777 16.6686 13.6047L16.852 15.5963ZM16.7304 15.5783L21.1179 17.4626L21.9071 15.6249L17.5196 13.7406L16.7304 15.5783ZM21.1282 17.467C21.0757 17.4452 21.0319 17.4066 21.0034 17.3574L22.7347 16.3561C22.5436 16.0257 22.2492 15.7672 21.8968 15.6206L21.1282 17.467ZM21.0034 17.3574C20.9749 17.3082 20.9634 17.2509 20.9706 17.1945L22.9543 17.4493C23.003 17.0707 22.9258 16.6866 22.7347 16.3561L21.0034 17.3574ZM20.9706 17.1948C20.8624 18.039 20.4504 18.8149 19.8116 19.3772L21.133 20.8784C22.1369 19.9948 22.7844 18.7756 22.9544 17.449L20.9706 17.1948ZM19.8116 19.3772C19.1727 19.9395 18.3509 20.2498 17.4998 20.25L17.5002 22.25C18.8376 22.2497 20.1291 21.7621 21.133 20.8784L19.8116 19.3772ZM17.5 20.25C14.3837 20.25 11.3951 19.0121 9.1915 16.8085L7.77728 18.2228C10.3559 20.8014 13.8533 22.25 17.5 22.25V20.25ZM9.1915 16.8085C6.98794 14.605 5.75 11.6163 5.75 8.50004H3.75C3.75 12.1468 5.19866 15.6441 7.77728 18.2228L9.1915 16.8085ZM5.75 8.50026C5.75019 7.64918 6.06049 6.82732 6.62283 6.18848L5.12159 4.86701C4.23791 5.8709 3.7503 7.16239 3.75 8.49981L5.75 8.50026ZM6.62283 6.18848C7.18517 5.54964 7.96102 5.13759 8.80521 5.02943L8.55104 3.04564C7.22447 3.2156 6.00527 3.86311 5.12159 4.86701L6.62283 6.18848ZM8.80553 5.02938C8.74911 5.03663 8.69188 5.02513 8.64264 4.99665L9.64389 3.26533C9.31344 3.07422 8.92933 2.99705 8.55072 3.04568L8.80553 5.02938ZM8.64264 4.99665C8.59339 4.96818 8.55488 4.9243 8.53302 4.87179L10.3795 4.10328C10.2328 3.75086 9.97433 3.45643 9.64389 3.26533L8.64264 4.99665ZM8.5371 4.88145L10.4215 9.27833L12.2598 8.49049L10.3754 4.09361L8.5371 4.88145ZM10.4234 9.28278C10.4071 9.24517 10.4002 9.20412 10.4035 9.16325L12.3971 9.32274C12.42 9.03664 12.3722 8.7493 12.2578 8.48604L10.4234 9.28278ZM10.4035 9.16325C10.4068 9.12238 10.4201 9.08294 10.4422 9.04841L12.1266 10.1267C12.2813 9.88493 12.3742 9.60885 12.3971 9.32274L10.4035 9.16325ZM10.4488 9.03816L8.88317 11.4194L10.5543 12.5182L12.12 10.1369L10.4488 9.03816ZM8.87922 11.4255C8.71658 11.6768 8.62113 11.9656 8.60198 12.2643L10.5979 12.3923C10.5951 12.4349 10.5815 12.4762 10.5583 12.5121L8.87922 11.4255ZM8.60198 12.2643C8.58283 12.5631 8.64063 12.8617 8.76985 13.1317L10.5739 12.2684C10.5924 12.3069 10.6006 12.3496 10.5979 12.3923L8.60198 12.2643Z" fill="#6E6E6E"/>
</svg>
