<svg width="3" height="26" viewBox="0 0 3 26" fill="none" xmlns="http://www.w3.org/2000/svg">
<path d="M0.247141 2.50602H2.57796V0H0.247141V2.50602ZM2.57796 2.50602C2.56406 2.50602 2.5528 2.40236 2.5528 2.27449H2.8251C2.8251 1.01832 2.71446 0 2.57796 0V2.50602ZM2.5528 2.27449V23.7255H2.8251V2.27449H2.5528ZM2.5528 23.7255C2.5528 23.5976 2.56406 23.494 2.57796 23.494V26C2.71446 26 2.8251 24.9817 2.8251 23.7255H2.5528ZM2.57796 23.494H0.247141V26H2.57796V23.494ZM0.247141 23.494C0.261035 23.494 0.272299 23.5976 0.272299 23.7255H0C0 24.9817 0.110649 26 0.247141 26V23.494ZM0.272299 23.7255V2.27449H0V23.7255H0.272299ZM0.272299 2.27449C0.272299 2.40236 0.261035 2.50602 0.247141 2.50602V0C0.110649 0 0 1.01832 0 2.27449H0.272299Z" fill="#6E6E6E"/>
</svg>
