<svg width="21" height="7" viewBox="0 0 21 7" fill="none" xmlns="http://www.w3.org/2000/svg">
<path d="M2.11515 0.442186C1.70232 -0.0689363 0.953308 -0.148621 0.442186 0.264212C-0.0689363 0.677041 -0.148621 1.42605 0.264212 1.93717L2.11515 0.442186ZM20.7355 1.93717C21.1484 1.42605 21.0687 0.677041 20.5576 0.264212C20.0465 -0.148621 19.2974 -0.0689363 18.8847 0.442186L20.7355 1.93717ZM0.264212 1.93717C2.02492 4.11709 5.31923 6.94713 10.4999 6.94713V4.56786C6.29275 4.56786 3.61301 2.29669 2.11515 0.442186L0.264212 1.93717ZM10.4999 6.94713C15.6805 6.94713 18.9749 4.11709 20.7355 1.93717L18.8847 0.442186C17.3868 2.29669 14.7071 4.56786 10.4999 4.56786V6.94713Z" fill="#6E6E6E"/>
</svg>
