<svg width="24" height="24" viewBox="0 0 24 24" fill="none" xmlns="http://www.w3.org/2000/svg">
<path d="M18.75 11.875C18.75 15.672 15.672 18.75 11.875 18.75V20.75C16.7765 20.75 20.75 16.7765 20.75 11.875H18.75ZM11.875 18.75C8.07804 18.75 5 15.672 5 11.875H3C3 16.7765 6.97347 20.75 11.875 20.75V18.75ZM5 11.875C5 8.07804 8.07804 5 11.875 5V3C6.97347 3 3 6.97347 3 11.875H5ZM11.875 5C15.672 5 18.75 8.07804 18.75 11.875H20.75C20.75 6.97347 16.7765 3 11.875 3V5Z" fill="#6E6E6E"/>
<path d="M18.1501 16.7366C17.7596 16.3461 17.1264 16.3461 16.7359 16.7366C16.3454 17.1272 16.3454 17.7603 16.7359 18.1509L18.1501 16.7366ZM21.2922 22.7072C21.6827 23.0977 22.3159 23.0977 22.7064 22.7072C23.0969 22.3166 23.0969 21.6835 22.7064 21.293L21.2922 22.7072ZM16.7359 18.1509L21.2922 22.7072L22.7064 21.293L18.1501 16.7366L16.7359 18.1509Z" fill="#6E6E6E"/>
</svg>
