<svg width="20" height="24" viewBox="0 0 20 24" fill="none" xmlns="http://www.w3.org/2000/svg">
<path d="M17.9895 22.2858H12.4285C13.364 21.4911 14.2465 20.6411 15.0704 19.7411C18.1569 16.3585 19.7885 12.7925 19.7885 9.42862C19.7885 6.92799 18.746 4.52978 16.8905 2.76158C15.035 0.993369 12.5183 0 9.89423 0C7.27011 0 4.75348 0.993369 2.89795 2.76158C1.04242 4.52978 0 6.92799 0 9.42862C0 12.7925 1.6315 16.3585 4.71807 19.7411C5.54199 20.6411 6.42436 21.4911 7.35999 22.2858H1.79895C1.5604 22.2858 1.33161 22.3761 1.16293 22.5369C0.994242 22.6976 0.899475 22.9157 0.899475 23.143C0.899475 23.3703 0.994242 23.5883 1.16293 23.749C1.33161 23.9098 1.5604 24.0001 1.79895 24.0001H17.9895C18.228 24.0001 18.4569 23.9098 18.6255 23.749C18.7942 23.5883 18.889 23.3703 18.889 23.143C18.889 22.9157 18.7942 22.6976 18.6255 22.5369C18.4569 22.3761 18.228 22.2858 17.9895 22.2858ZM9.89425 6.00003C10.6059 6.00003 11.3015 6.20112 11.8931 6.57785C12.4848 6.95459 12.946 7.49006 13.2183 8.11656C13.4906 8.74305 13.5618 9.43242 13.4231 10.0975C13.2842 10.7626 12.9415 11.3735 12.4383 11.853C11.9352 12.3325 11.2941 12.659 10.5962 12.7914C9.89825 12.9236 9.17483 12.8557 8.5174 12.5962C7.85996 12.3367 7.29806 11.8973 6.90272 11.3334C6.50737 10.7696 6.29635 10.1067 6.29635 9.42862C6.29635 8.97836 6.38941 8.53252 6.57022 8.11654C6.75103 7.70058 7.01605 7.32261 7.35015 7.00423C7.68424 6.68586 8.08088 6.43331 8.5174 6.261C8.95392 6.0887 9.42178 6.00003 9.89425 6.00003Z" fill="#1A1A1A"/>
</svg>
