<svg width="26" height="25" viewBox="0 0 26 25" fill="none" xmlns="http://www.w3.org/2000/svg">
<path d="M11.7311 6.12764L12.7412 6.12857V6.12775L11.7311 6.12764ZM20.8071 4.10725L19.8814 4.5383C20.0421 4.93083 20.4055 5.18456 20.8071 5.18457V4.10725ZM24.9891 4.10729L25.7034 4.86908C25.9923 4.56097 26.0787 4.0976 25.9223 3.69504C25.766 3.29246 25.3977 3.02998 24.9891 3.02997V4.10729ZM21.1701 8.18041L20.4558 7.41862C20.2823 7.60364 20.1779 7.84968 20.1621 8.1108L21.1701 8.18041ZM6.04914 23.2971V24.3744H6.04915L6.04914 23.2971ZM1.31414 21.7822L0.959463 20.7734C0.670827 20.8889 0.447413 21.1385 0.352784 21.4514C0.258154 21.7643 0.30267 22.1061 0.473664 22.3798L1.31414 21.7822ZM6.99614 17.2372L7.83662 17.8348C7.99733 17.5776 8.0468 17.2594 7.97243 16.9606C7.89807 16.662 7.70703 16.4118 7.44788 16.2736L6.99614 17.2372ZM1.31414 2.08732L2.02841 1.32554C1.76275 1.04219 1.37158 0.939521 1.01296 1.059C0.654332 1.17848 0.387515 1.50036 0.320306 1.8946L1.31414 2.08732ZM11.7295 8.14726L11.5634 9.20992C11.8562 9.26197 12.1556 9.17409 12.382 8.9696C12.6086 8.76511 12.7394 8.46472 12.7396 8.14819L11.7295 8.14726ZM12.7412 6.12775C12.7413 5.21496 13.0361 4.33002 13.5759 3.62173L12.0083 2.26262C11.1757 3.35499 10.7211 4.71977 10.721 6.12755L12.7412 6.12775ZM13.5759 3.62173C14.1158 2.91344 14.8679 2.42498 15.7057 2.23848L15.2929 0.129287C14.0008 0.416924 12.8409 1.17025 12.0083 2.26262L13.5759 3.62173ZM15.7057 2.23848C16.5435 2.05198 17.4159 2.1788 18.1765 2.59763L19.1034 0.68319C17.9306 0.0372459 16.585 -0.158345 15.2929 0.129287L15.7057 2.23848ZM18.1765 2.59763C18.9369 3.01646 19.5389 3.70176 19.8814 4.5383L21.7328 3.6762C21.2047 2.38603 20.2762 1.32913 19.1034 0.68319L18.1765 2.59763ZM20.8071 5.18457L24.9891 5.18462V3.02997L20.8071 3.02993V5.18457ZM24.2748 3.34552L20.4558 7.41862L21.8843 8.94218L25.7034 4.86908L24.2748 3.34552ZM20.1621 8.1108C19.9299 11.9345 18.3421 15.5206 15.7209 18.1409L17.1026 19.713C20.0981 16.7182 21.9128 12.6199 22.1781 8.25L20.1621 8.1108ZM15.7209 18.1409C13.0997 20.7614 9.64179 22.2197 6.04912 22.2198L6.04915 24.3744C10.155 24.3743 14.107 22.7077 17.1026 19.713L15.7209 18.1409ZM6.04914 22.2198C4.28202 22.2198 3.25834 21.8669 2.71289 21.5761C2.43917 21.4301 2.27773 21.2956 2.19704 21.2181C2.15634 21.179 2.13491 21.1532 2.12918 21.1461C2.12629 21.1425 2.12726 21.1435 2.13166 21.1497C2.13385 21.1528 2.1369 21.1572 2.14075 21.1629C2.14267 21.1658 2.14479 21.1691 2.1471 21.1727C2.14827 21.1745 2.14947 21.1764 2.15072 21.1783C2.15136 21.1793 2.15199 21.1804 2.15264 21.1814C2.15296 21.1819 2.15346 21.1827 2.15362 21.183C2.15412 21.1837 2.15463 21.1846 1.31414 21.7822C0.473664 22.3798 0.474173 22.3805 0.474687 22.3814C0.474863 22.3816 0.475382 22.3825 0.475736 22.383C0.476444 22.3842 0.47717 22.3853 0.477913 22.3865C0.479399 22.3888 0.480955 22.3912 0.482583 22.3938C0.485837 22.3988 0.489376 22.4042 0.493207 22.4099C0.500869 22.4215 0.509696 22.4344 0.519753 22.4486C0.53987 22.477 0.564883 22.5106 0.595285 22.5484C0.656145 22.6241 0.738299 22.7167 0.845557 22.8196C1.0608 23.0263 1.37286 23.2704 1.8094 23.5032C2.68444 23.9698 4.02827 24.3744 6.04914 24.3744V22.2198ZM1.31414 21.7822C1.66883 22.7909 1.66907 22.7908 1.66933 22.7907C1.66943 22.7907 1.6697 22.7906 1.66991 22.7905C1.67033 22.7902 1.67081 22.79 1.67135 22.7898C1.67242 22.7894 1.67372 22.7889 1.67526 22.7883C1.67832 22.787 1.6823 22.7854 1.68718 22.7834C1.69693 22.7795 1.71025 22.774 1.72698 22.7669C1.76043 22.7529 1.80752 22.7328 1.86684 22.7066C1.98541 22.6543 2.15321 22.5775 2.35892 22.4762C2.76955 22.2741 3.33546 21.9723 3.9646 21.5697C5.20652 20.775 6.77088 19.5397 7.83662 17.8348L6.15566 16.6396C5.32739 17.9646 4.05076 19.0018 2.92519 19.7221C2.37056 20.077 1.87111 20.3433 1.51231 20.5199C1.3333 20.608 1.19036 20.6733 1.09438 20.7156C1.04642 20.7369 1.01028 20.7523 0.987314 20.7619C0.975835 20.7667 0.967659 20.77 0.962958 20.772C0.960608 20.7729 0.959127 20.7735 0.958537 20.7738C0.958242 20.7739 0.95817 20.7739 0.958324 20.7738C0.9584 20.7738 0.958533 20.7738 0.958723 20.7737C0.958818 20.7737 0.959003 20.7736 0.959051 20.7736C0.95925 20.7735 0.959463 20.7734 1.31414 21.7822ZM6.99614 17.2372C7.44788 16.2736 7.44839 16.2738 7.44885 16.2742C7.44897 16.2742 7.44942 16.2744 7.44966 16.2746C7.45014 16.2748 7.45051 16.275 7.45076 16.2751C7.45127 16.2754 7.45134 16.2754 7.45095 16.2752C7.45021 16.2748 7.4477 16.2735 7.44351 16.2711C7.43511 16.2664 7.41998 16.2579 7.39861 16.2453C7.35583 16.2202 7.28821 16.1792 7.19977 16.1218C7.02274 16.0068 6.76336 15.8263 6.45364 15.575C5.83309 15.0714 5.01853 14.29 4.25811 13.1893C2.75564 11.0147 1.41377 7.52534 2.30799 2.28004L0.320306 1.8946C-0.679478 7.75919 0.81965 11.8448 2.63168 14.4675C3.52851 15.7657 4.48957 16.6886 5.23033 17.2897C5.60127 17.5907 5.91897 17.8127 6.14884 17.962C6.26386 18.0367 6.35715 18.0934 6.42443 18.1329C6.45808 18.1527 6.48526 18.1681 6.50542 18.1794C6.5155 18.185 6.52383 18.1896 6.53035 18.1932C6.53361 18.1949 6.53641 18.1964 6.53875 18.1977C6.53993 18.1984 6.54099 18.1989 6.54193 18.1994C6.54239 18.1997 6.54301 18.2 6.54325 18.2002C6.54384 18.2005 6.54439 18.2007 6.99614 17.2372ZM1.31414 2.08732C0.599873 2.8491 0.600066 2.8493 0.600276 2.84953C0.600371 2.84963 0.6006 2.84988 0.600789 2.85008C0.601167 2.85048 0.601619 2.85096 0.602142 2.85151C0.603188 2.85262 0.604525 2.85404 0.60615 2.85577C0.609401 2.8592 0.613804 2.86385 0.619346 2.86967C0.630431 2.8813 0.646074 2.89762 0.666159 2.91836C0.706325 2.95983 0.764284 3.01896 0.83911 3.09351C0.988715 3.24257 1.20602 3.45358 1.48359 3.7085C2.0381 4.21778 2.83658 4.90558 3.81938 5.62628C5.77037 7.05695 8.51606 8.66809 11.5634 9.20992L11.8957 7.08461C9.26258 6.61645 6.80059 5.19761 4.964 3.85082C4.053 3.18278 3.3127 2.54495 2.80189 2.07581C2.5468 1.84153 2.34981 1.6501 2.21828 1.51905C2.15254 1.45355 2.10322 1.4032 2.07125 1.3702C2.05527 1.3537 2.04364 1.34154 2.03645 1.334C2.03287 1.33024 2.03039 1.32762 2.02905 1.3262C2.02837 1.32549 2.02798 1.32507 2.02788 1.32496C2.02783 1.32491 2.02785 1.32493 2.02793 1.32502C2.02798 1.32507 2.0281 1.3252 2.02812 1.32522C2.02826 1.32537 2.02841 1.32554 1.31414 2.08732ZM12.7396 8.14819L12.7412 6.12857L10.721 6.12672L10.7194 8.14633L12.7396 8.14819Z" fill="#FD650B"/>
</svg>
