<svg width="20" height="17" viewBox="0 0 20 17" fill="none" xmlns="http://www.w3.org/2000/svg">
<path d="M16.6661 3.06163H1.33329V0.765407C1.33329 0.562409 1.26305 0.367725 1.13803 0.224182C1.01301 0.080641 0.84345 0 0.666645 0C0.48984 0 0.320275 0.080641 0.195256 0.224182C0.0702356 0.367725 0 0.562409 0 0.765407V16.0736C0 16.2766 0.0702356 16.4712 0.195256 16.6147C0.320275 16.7584 0.48984 16.839 0.666645 16.839C0.84345 16.839 1.01301 16.7584 1.13803 16.6147C1.26305 16.4712 1.33329 16.2766 1.33329 16.0736V13.0119H18.6661V16.0736C18.6661 16.2766 18.7362 16.4712 18.8614 16.6147C18.9864 16.7584 19.1559 16.839 19.3327 16.839C19.5096 16.839 19.679 16.7584 19.8041 16.6147C19.9292 16.4712 19.9994 16.2766 19.9994 16.0736V6.88866C19.9984 5.87403 19.6468 4.90126 19.022 4.1838C18.3971 3.46635 17.5498 3.06277 16.6661 3.06163ZM1.33329 4.59244H7.3331V11.4811H1.33329V4.59244Z" fill="#636363"/>
</svg>
