<svg width="20" height="8" viewBox="0 0 20 8" fill="none" xmlns="http://www.w3.org/2000/svg">
<path d="M19.5808 1.81416C20.0305 1.49342 20.1349 0.868935 19.8142 0.419329C19.4934 -0.0302735 18.869 -0.134743 18.4194 0.185993L19.5808 1.81416ZM11.6407 6.25008V7.25008C11.8489 7.25008 12.052 7.18509 12.2215 7.06416L11.6407 6.25008ZM8.35946 6.25008L7.77871 7.06416C7.94821 7.18509 8.15124 7.25008 8.35946 7.25008V6.25008ZM1.58082 0.185993C1.13122 -0.134743 0.50673 -0.0302735 0.185993 0.419329C-0.134743 0.868935 -0.0302735 1.49342 0.419329 1.81416L1.58082 0.185993ZM18.4194 0.185993L11.06 5.436L12.2215 7.06416L19.5808 1.81416L18.4194 0.185993ZM11.6407 5.25008H8.35946V7.25008H11.6407V5.25008ZM8.9402 5.436L1.58082 0.185993L0.419329 1.81416L7.77871 7.06416L8.9402 5.436Z" fill="#6E6E6E"/>
</svg>
