<svg width="1" height="2" viewBox="0 0 1 2" fill="none" xmlns="http://www.w3.org/2000/svg">
<path d="M0.197499 0.871C0.184631 0.871 0.1742 0.92877 0.1742 1.00003C0.1742 1.0713 0.184631 1.12907 0.197499 1.12907V0.871ZM0.581942 1.12907C0.59481 1.12907 0.605241 1.0713 0.605241 1.00003C0.605241 0.92877 0.59481 0.871 0.581942 0.871V1.12907ZM0.197499 1.12907H0.581942V0.871H0.197499V1.12907Z" fill="#FD650B"/>
<path d="M0.0397748 0.0377931C0.0306758 -0.0125977 0.0159233 -0.0125977 0.00682425 0.0377931C-0.00227475 0.0881841 -0.00227475 0.169884 0.00682425 0.220275L0.0397748 0.0377931ZM0.180571 1.00001L0.197047 1.09126C0.206146 1.04086 0.206146 0.959165 0.197047 0.908774L0.180571 1.00001ZM0.00682425 1.77976C-0.00227475 1.83014 -0.00227475 1.91185 0.00682425 1.96224C0.0159233 2.01262 0.0306758 2.01262 0.0397748 1.96224L0.00682425 1.77976ZM0.00682425 0.220275L0.164096 1.09126L0.197047 0.908774L0.0397748 0.0377931L0.00682425 0.220275ZM0.164096 0.908774L0.00682425 1.77976L0.0397748 1.96224L0.197047 1.09126L0.164096 0.908774Z" fill="#FD650B"/>
</svg>
