<svg width="13" height="13" viewBox="0 0 13 13" fill="none" xmlns="http://www.w3.org/2000/svg">
<path d="M10.7143 6.5C10.7143 8.82749 8.82749 10.7143 6.5 10.7143V13C10.0899 13 13 10.0899 13 6.5H10.7143ZM6.5 10.7143C4.17251 10.7143 2.28571 8.82749 2.28571 6.5H0C0 10.0899 2.91015 13 6.5 13V10.7143ZM2.28571 6.5C2.28571 4.17251 4.17251 2.28571 6.5 2.28571V0C2.91015 0 0 2.91015 0 6.5H2.28571ZM6.5 2.28571C8.82749 2.28571 10.7143 4.17251 10.7143 6.5H13C13 2.91015 10.0899 0 6.5 0V2.28571Z" fill="#FD650B"/>
</svg>
