<svg width="32" height="32" viewBox="0 0 32 32" fill="none" xmlns="http://www.w3.org/2000/svg">
<path d="M19.3546 31.8538C18.6378 31.9108 17.1019 31.9312 16.0074 31.9312C14.9097 31.9312 13.377 31.9108 12.6602 31.8538C12.4905 31.8403 12.2186 31.8403 12.0491 31.8538C11.8795 31.8673 11.8795 31.8889 12.0491 31.9024C13.1851 31.9928 15.3675 32 16.0074 32C16.6473 32 18.8265 31.9928 19.9659 31.9024C20.1321 31.8889 20.1321 31.8672 19.9659 31.8538C19.7962 31.8403 19.5242 31.8403 19.3546 31.8538Z" fill="#D7D7D7"/>
<path d="M13.9985 21.7864C13.9985 21.7133 13.2498 21.6537 12.3313 21.6537C11.4131 21.6537 10.6641 21.7133 10.6641 21.7864C10.6641 21.8595 11.4131 21.9191 12.3313 21.9191C13.2498 21.9191 13.9985 21.8595 13.9985 21.7864Z" fill="#D7D7D7"/>
<path d="M16 10.1899C7.16479 10.1899 0 10.7603 0 11.4637C0 12.167 7.16479 12.7374 16 12.7374C24.8352 12.7374 32 12.167 32 11.4637C32 10.7603 24.8352 10.1899 16 10.1899ZM25.2832 11.6336C25.3184 11.6519 25.3376 11.6705 25.3376 11.6894C25.3376 11.9752 21.1584 12.2068 16.0032 12.2068C10.8479 12.2068 6.6687 11.9752 6.6687 11.6894C6.6687 11.6703 6.68799 11.6514 6.72314 11.6331C5.9104 11.6041 5.34399 11.5391 5.34399 11.4637C5.34399 11.3613 6.38721 11.278 7.67676 11.278C8.30396 11.278 8.87036 11.2976 9.28955 11.3297C10.9087 11.2367 13.1489 11.1773 15.6416 11.1722C15.6416 11.1697 16.8064 10.728 16.8064 10.728C16.8289 10.7193 16.8928 10.7119 16.9856 10.7071C17.0784 10.7022 17.1904 10.7007 17.2993 10.7025L21.1777 10.7682C21.4497 10.7244 22.0095 10.6941 22.6655 10.6941C23.5872 10.6941 24.3328 10.7534 24.3328 10.8268C24.3328 10.9002 23.5872 10.9595 22.6655 10.9595C21.7727 10.9595 21.0496 10.9035 21.0081 10.8332L17.5359 10.7743L16.4736 11.1725C18.9216 11.1794 21.1201 11.2385 22.7136 11.3302C23.1328 11.2979 23.7024 11.278 24.3328 11.278C25.6226 11.278 26.6655 11.361 26.6655 11.4637C26.6655 11.5396 26.0928 11.6046 25.2832 11.6336Z" fill="#D7D7D7"/>
<path d="M19.6672 0C18.7488 0 18 0.0596095 18 0.132727C18 0.205825 18.7488 0.265454 19.6672 0.265454C20.5855 0.265454 21.3345 0.205825 21.3345 0.132727C21.3345 0.0596095 20.5857 0 19.6672 0Z" fill="#D7D7D7"/>
</svg>
