<svg width="16" height="16" viewBox="0 0 16 16" fill="none" xmlns="http://www.w3.org/2000/svg">
<path d="M6.78033 2.81931C6.48744 2.52641 6.01256 2.52641 5.71967 2.81931C5.42678 3.11221 5.42678 3.58705 5.71967 3.87994L6.78033 2.81931ZM11.25 8.34961L11.7803 8.87994C12.0732 8.58705 12.0732 8.11217 11.7803 7.81928L11.25 8.34961ZM5.71967 12.8193C5.42678 13.1122 5.42678 13.587 5.71967 13.8799C6.01256 14.1728 6.48744 14.1728 6.78033 13.8799L5.71967 12.8193ZM5.71967 3.87994L10.7197 8.87994L11.7803 7.81928L6.78033 2.81931L5.71967 3.87994ZM10.7197 7.81928L5.71967 12.8193L6.78033 13.8799L11.7803 8.87994L10.7197 7.81928Z" fill="#1A1A1A"/>
</svg>
