<svg width="18" height="10" viewBox="0 0 18 10" fill="none" xmlns="http://www.w3.org/2000/svg">
<path d="M17.1339 2.13388C17.622 1.64573 17.622 0.854273 17.1339 0.366118C16.6457 -0.122039 15.8543 -0.122039 15.3661 0.366118L17.1339 2.13388ZM8.75 8.75L7.86612 9.63388C8.35427 10.122 9.14573 10.122 9.63388 9.63388L8.75 8.75ZM2.13388 0.366118C1.64573 -0.122039 0.854273 -0.122039 0.366118 0.366118C-0.122039 0.854273 -0.122039 1.64573 0.366118 2.13388L2.13388 0.366118ZM15.3661 0.366118L7.86612 7.86612L9.63388 9.63388L17.1339 2.13388L15.3661 0.366118ZM9.63388 7.86612L2.13388 0.366118L0.366118 2.13388L7.86612 9.63388L9.63388 7.86612Z" fill="#636363"/>
</svg>
