<svg width="38" height="26" viewBox="0 0 38 26" fill="none" xmlns="http://www.w3.org/2000/svg">
<line x1="0.5" y1="2.18558e-08" x2="0.499999" y2="26" stroke="#D7D7D7"/>
<path d="M34.75 19.625C34.75 19.0727 34.3023 18.625 33.75 18.625C33.1977 18.625 32.75 19.0727 32.75 19.625H34.75ZM32.75 22.25C32.75 22.8023 33.1977 23.25 33.75 23.25C34.3023 23.25 34.75 22.8023 34.75 22.25H32.75ZM32.75 19.625V22.25H34.75V19.625H32.75Z" fill="#6E6E6E"/>
<path d="M21.25 16.625C21.25 16.0727 20.8023 15.625 20.25 15.625C19.6977 15.625 19.25 16.0727 19.25 16.625H21.25ZM19.25 22.25C19.25 22.8023 19.6977 23.25 20.25 23.25C20.8023 23.25 21.25 22.8023 21.25 22.25H19.25ZM19.25 16.625V22.25H21.25V16.625H19.25Z" fill="#6E6E6E"/>
<path d="M34.625 17.75C34.625 18.2332 34.2332 18.625 33.75 18.625V20.625C35.3378 20.625 36.625 19.3378 36.625 17.75H34.625ZM33.75 18.625C33.2668 18.625 32.875 18.2332 32.875 17.75H30.875C30.875 19.3378 32.1622 20.625 33.75 20.625V18.625ZM32.875 17.75C32.875 17.2668 33.2668 16.875 33.75 16.875V14.875C32.1622 14.875 30.875 16.1622 30.875 17.75H32.875ZM33.75 16.875C34.2332 16.875 34.625 17.2668 34.625 17.75H36.625C36.625 16.1622 35.3378 14.875 33.75 14.875V16.875Z" fill="#6E6E6E"/>
<path d="M21.125 14.75C21.125 15.2332 20.7332 15.625 20.25 15.625V17.625C21.8378 17.625 23.125 16.3378 23.125 14.75H21.125ZM20.25 15.625C19.7668 15.625 19.375 15.2332 19.375 14.75H17.375C17.375 16.3378 18.6622 17.625 20.25 17.625V15.625ZM19.375 14.75C19.375 14.2668 19.7668 13.875 20.25 13.875V11.875C18.6622 11.875 17.375 13.1622 17.375 14.75H19.375ZM20.25 13.875C20.7332 13.875 21.125 14.2668 21.125 14.75H23.125C23.125 13.1622 21.8378 11.875 20.25 11.875V13.875Z" fill="#6E6E6E"/>
<path d="M28 12.125C28 11.5727 27.5523 11.125 27 11.125C26.4477 11.125 26 11.5727 26 12.125H28ZM26 22.25C26 22.8023 26.4477 23.25 27 23.25C27.5523 23.25 28 22.8023 28 22.25H26ZM26 12.125V22.25H28V12.125H26Z" fill="#6E6E6E"/>
<path d="M27.875 10.25C27.875 10.7332 27.4832 11.125 27 11.125V13.125C28.5878 13.125 29.875 11.8378 29.875 10.25H27.875ZM27 11.125C26.5168 11.125 26.125 10.7332 26.125 10.25H24.125C24.125 11.8378 25.4122 13.125 27 13.125V11.125ZM26.125 10.25C26.125 9.76675 26.5168 9.375 27 9.375V7.375C25.4122 7.375 24.125 8.66218 24.125 10.25H26.125ZM27 9.375C27.4832 9.375 27.875 9.76675 27.875 10.25H29.875C29.875 8.66218 28.5878 7.375 27 7.375V9.375Z" fill="#6E6E6E"/>
<path d="M34.75 5.75C34.75 5.19771 34.3023 4.75 33.75 4.75C33.1977 4.75 32.75 5.19771 32.75 5.75H34.75ZM32.75 15.875C32.75 16.4273 33.1977 16.875 33.75 16.875C34.3023 16.875 34.75 16.4273 34.75 15.875H32.75ZM32.75 5.75V15.875H34.75V5.75H32.75Z" fill="#6E6E6E"/>
<path d="M28 5.75C28 5.19771 27.5523 4.75 27 4.75C26.4477 4.75 26 5.19771 26 5.75H28ZM26 8.375C26 8.92728 26.4477 9.375 27 9.375C27.5523 9.375 28 8.92728 28 8.375H26ZM26 5.75V8.375H28V5.75H26Z" fill="#6E6E6E"/>
<path d="M21.25 5.75C21.25 5.19771 20.8023 4.75 20.25 4.75C19.6977 4.75 19.25 5.19771 19.25 5.75H21.25ZM19.25 12.875C19.25 13.4273 19.6977 13.875 20.25 13.875C20.8023 13.875 21.25 13.4273 21.25 12.875H19.25ZM19.25 5.75V12.875H21.25V5.75H19.25Z" fill="#6E6E6E"/>
</svg>
