<svg width="25" height="25" viewBox="0 0 25 25" fill="none" xmlns="http://www.w3.org/2000/svg">
<path d="M22.6815 12.5C22.6815 18.1231 18.1231 22.6815 12.5 22.6815V25C19.4035 25 25 19.4035 25 12.5H22.6815ZM12.5 22.6815C6.87694 22.6815 2.31855 18.1231 2.31855 12.5H0C0 19.4035 5.59644 25 12.5 25V22.6815ZM2.31855 12.5C2.31855 6.87694 6.87694 2.31855 12.5 2.31855V0C5.59644 0 0 5.59644 0 12.5H2.31855ZM12.5 2.31855C18.1231 2.31855 22.6815 6.87694 22.6815 12.5H25C25 5.59644 19.4035 0 12.5 0V2.31855Z" fill="#1A1A1A"/>
</svg>
