<svg width="20" height="20" viewBox="0 0 20 20" fill="none" xmlns="http://www.w3.org/2000/svg">
<path d="M9.9676 13.8569L9.51645 14.7947L9.52225 14.7974L9.9676 13.8569ZM10.7383 13.7984L10.1603 12.933L10.156 12.9359L10.7383 13.7984ZM13.1774 12.169L13.7555 13.0344L13.7615 13.0303L13.1774 12.169ZM13.9189 12.1007L13.5019 13.0542L13.5082 13.057L13.9189 12.1007ZM18.4848 14.0618L18.074 15.018L18.0849 15.0225L18.4848 14.0618ZM18.9531 14.8715L17.9209 14.7389V14.7392L18.9531 14.8715ZM14.3091 18.9593V20H14.3093L14.3091 18.9593ZM1.04066 5.69091L0 5.69067V5.69091H1.04066ZM5.12852 1.04695L5.26077 2.07917L5.26111 2.07913L5.12852 1.04695ZM5.93829 1.51525L4.97746 1.91515L4.98176 1.92518L5.93829 1.51525ZM7.89928 6.09091L6.94276 6.50086L6.94476 6.50548L7.89928 6.09091ZM7.84074 6.82263L8.71037 7.39439L8.71722 7.38368L7.84074 6.82263ZM6.21146 9.30071L5.34188 8.72898L5.33779 8.7353L6.21146 9.30071ZM6.16267 10.0617L5.22396 10.5109L5.22606 10.5153L6.16267 10.0617ZM5.22606 10.5153C6.13168 12.3855 7.64394 13.8938 9.51645 14.7947L10.4188 12.9191C8.97001 12.2221 7.79998 11.0551 7.0993 9.60814L5.22606 10.5153ZM9.52225 14.7974C9.80807 14.9328 10.1242 14.9913 10.4395 14.9673L10.2819 12.8921C10.327 12.8886 10.3721 12.8969 10.413 12.9163L9.52225 14.7974ZM10.4395 14.9673C10.7549 14.9434 11.0585 14.8378 11.3206 14.6609L10.156 12.9359C10.1935 12.9106 10.2369 12.8955 10.2819 12.8921L10.4395 14.9673ZM11.3164 14.6637L13.7555 13.0344L12.5993 11.3037L10.1603 12.933L11.3164 14.6637ZM13.7615 13.0303C13.7238 13.0559 13.6801 13.0715 13.6348 13.0757L13.4439 11.0031C13.1392 11.0312 12.8465 11.136 12.5933 11.3078L13.7615 13.0303ZM13.6348 13.0757C13.5894 13.0799 13.5436 13.0725 13.5019 13.0542L14.3359 11.1473C14.0555 11.0247 13.7486 10.9751 13.4439 11.0031L13.6348 13.0757ZM13.5082 13.057L18.0741 15.0179L18.8954 13.1055L14.3295 11.1445L13.5082 13.057ZM18.0849 15.0225C18.0302 14.9998 17.9846 14.9596 17.955 14.9084L19.7567 13.8664C19.5578 13.5226 19.2514 13.2536 18.8847 13.101L18.0849 15.0225ZM17.955 14.9084C17.9253 14.8572 17.9134 14.7976 17.9209 14.7389L19.9852 15.0041C20.0359 14.6101 19.9556 14.2104 19.7567 13.8664L17.955 14.9084ZM17.9209 14.7392C17.8083 15.6178 17.3795 16.4252 16.7147 17.0104L18.0899 18.5726C19.1346 17.6531 19.8084 16.3843 19.9853 15.0038L17.9209 14.7392ZM16.7147 17.0104C16.0498 17.5955 15.1946 17.9185 14.3089 17.9187L14.3093 20C15.7011 19.9997 17.0451 19.4923 18.0899 18.5726L16.7147 17.0104ZM14.3091 17.9187C11.0661 17.9187 7.95593 16.6304 5.66277 14.3372L4.19104 15.809C6.87453 18.4925 10.5141 20 14.3091 20V17.9187ZM5.66277 14.3372C3.36961 12.0441 2.08133 8.93392 2.08133 5.69091H0C0 9.48592 1.50756 13.1255 4.19104 15.809L5.66277 14.3372ZM2.08133 5.69114C2.08152 4.80545 2.40444 3.95017 2.98965 3.28536L1.42737 1.91015C0.507752 2.95486 0.00031324 4.29887 0 5.69067L2.08133 5.69114ZM2.98965 3.28536C3.57486 2.62054 4.38226 2.19173 5.26077 2.07917L4.99627 0.0147224C3.61575 0.191597 2.34698 0.865436 1.42737 1.91015L2.98965 3.28536ZM5.26111 2.07913C5.20239 2.08667 5.14283 2.0747 5.09159 2.04507L6.13356 0.24334C5.78967 0.0444666 5.38994 -0.0358487 4.99593 0.014765L5.26111 2.07913ZM5.09159 2.04507C5.04034 2.01543 5.00026 1.96978 4.97751 1.91513L6.89906 1.11537C6.74641 0.748617 6.47743 0.442213 6.13356 0.24334L5.09159 2.04507ZM4.98176 1.92518L6.94277 6.50085L8.85581 5.68097L6.8948 1.10531L4.98176 1.92518ZM6.94476 6.50548C6.92777 6.46634 6.92065 6.42362 6.92406 6.38109L8.99875 6.54707C9.02257 6.24933 8.9728 5.95031 8.85381 5.67634L6.94476 6.50548ZM6.92406 6.38109C6.92746 6.33856 6.94128 6.29752 6.96428 6.26158L8.71722 7.38368C8.87826 7.13212 8.97493 6.84481 8.99875 6.54707L6.92406 6.38109ZM6.9712 6.25091L5.3419 8.72899L7.08102 9.87242L8.7103 7.39434L6.9712 6.25091ZM5.33779 8.7353C5.16854 8.99682 5.06921 9.2974 5.04928 9.60827L7.12634 9.74142C7.1235 9.78582 7.1093 9.82876 7.08513 9.86613L5.33779 8.7353ZM5.04928 9.60827C5.02935 9.91915 5.0895 10.2299 5.22398 10.5109L7.10138 9.61247C7.1206 9.65261 7.12919 9.697 7.12634 9.74142L5.04928 9.60827Z" fill="#6E6E6E"/>
</svg>
