<svg width="10" height="11" viewBox="0 0 10 11" fill="none" xmlns="http://www.w3.org/2000/svg">
<path d="M0 4.9572C0 5.59669 0.518403 6.11509 1.15789 6.11509C1.79737 6.11509 2.31577 5.59669 2.31577 4.9572H0ZM4.9572 1.15789V0V1.15789ZM7.59863 9.84204C7.59863 10.4815 8.11704 10.9999 8.75652 10.9999C9.396 10.9999 9.91441 10.4815 9.91441 9.84204H7.59863ZM2.31577 4.9572C2.31577 4.25665 2.59407 3.58479 3.08943 3.08943L1.45193 1.45193C0.522274 2.38159 0 3.64247 0 4.9572H2.31577ZM3.08943 3.08943C3.58479 2.59407 4.25665 2.31577 4.9572 2.31577V0C3.64247 0 2.38159 0.522275 1.45193 1.45193L3.08943 3.08943ZM4.9572 2.31577C5.65776 2.31577 6.32961 2.59407 6.82498 3.08943L8.46247 1.45193C7.53282 0.522275 6.27194 0 4.9572 0V2.31577ZM6.82498 3.08943C7.32033 3.58479 7.59863 4.25665 7.59863 4.9572H9.91441C9.91441 3.64247 9.39213 2.38159 8.46247 1.45193L6.82498 3.08943ZM7.59863 4.9572V9.84204H9.91441V4.9572H7.59863Z" fill="#FD650B"/>
</svg>
