<svg width="139" height="4" viewBox="0 0 139 4" fill="none" xmlns="http://www.w3.org/2000/svg">
<path fill-rule="evenodd" clip-rule="evenodd" d="M0.678552 3.73619C0.678552 3.73619 1.3571 3.73482 1.3571 3.73307C1.3571 3.73255 1.28561 3.73205 1.15836 3.73168C1.03111 3.73132 0.858514 3.73111 0.678552 3.73111C0.49859 3.73111 0.325996 3.73132 0.198743 3.73168C0.0714902 3.73205 0 3.73255 0 3.73307C0 3.73482 0.678552 3.73619 0.678552 3.73619ZM0.950012 3.73292C0.950012 3.73335 0.828492 3.7337 0.678591 3.7337C0.52869 3.7337 0.407171 3.73335 0.407171 3.73292C0.407171 3.73249 0.52869 3.73214 0.678591 3.73214C0.828492 3.73214 0.950012 3.73249 0.950012 3.73292Z" fill="#D9D9D9"/>
<path fill-rule="evenodd" clip-rule="evenodd" d="M80.2181 3.45905C80.2181 3.45905 80.8966 3.45768 80.8966 3.45592C80.8966 3.4554 80.8251 3.4549 80.6979 3.45454C80.5706 3.45417 80.398 3.45397 80.2181 3.45397C80.0381 3.45397 79.8655 3.45417 79.7383 3.45454C79.611 3.4549 79.5395 3.4554 79.5395 3.45592C79.5395 3.45768 80.2181 3.45905 80.2181 3.45905ZM80.4897 3.45596C80.4897 3.4564 80.3682 3.45675 80.2183 3.45675C80.0684 3.45675 79.9469 3.4564 79.9469 3.45596C79.9469 3.45553 80.0684 3.45518 80.2183 3.45518C80.3682 3.45518 80.4897 3.45553 80.4897 3.45596Z" fill="#D9D9D9"/>
<path fill-rule="evenodd" clip-rule="evenodd" d="M97.4435 3.18021C97.4435 3.18021 98.1221 3.17885 98.1221 3.17709C98.1221 3.17657 98.0506 3.17607 97.9233 3.17571C97.7961 3.17534 97.6235 3.17513 97.4435 3.17513C97.2636 3.17513 97.091 3.17534 96.9637 3.17571C96.8365 3.17607 96.765 3.17657 96.765 3.17709C96.765 3.17885 97.4435 3.18021 97.4435 3.18021ZM97.715 3.17709C97.715 3.17752 97.5935 3.17787 97.4436 3.17787C97.2937 3.17787 97.1721 3.17752 97.1721 3.17709C97.1721 3.17666 97.2937 3.17631 97.4436 3.17631C97.5935 3.17631 97.715 3.17666 97.715 3.17709Z" fill="#D9D9D9"/>
<path fill-rule="evenodd" clip-rule="evenodd" d="M78.096 2.89443C78.096 2.89443 78.7746 2.89306 78.7746 2.8913C78.7746 2.89078 78.7031 2.89029 78.5758 2.88992C78.4486 2.88955 78.276 2.88935 78.096 2.88935C77.9161 2.88935 77.7435 2.88955 77.6162 2.88992C77.489 2.89029 77.4175 2.89078 77.4175 2.8913C77.4175 2.89306 78.096 2.89443 78.096 2.89443ZM78.3674 2.8913C78.3674 2.89174 78.2459 2.89209 78.096 2.89209C77.9461 2.89209 77.8246 2.89174 77.8246 2.8913C77.8246 2.89087 77.9461 2.89052 78.096 2.89052C78.2459 2.89052 78.3674 2.89087 78.3674 2.8913Z" fill="#D9D9D9"/>
<path fill-rule="evenodd" clip-rule="evenodd" d="M132.279 2.6061C132.279 2.6061 132.957 2.60473 132.957 2.60297C132.957 2.60245 132.886 2.60195 132.759 2.60159C132.631 2.60122 132.459 2.60102 132.279 2.60102C132.099 2.60102 131.926 2.60122 131.799 2.60159C131.672 2.60195 131.6 2.60245 131.6 2.60297C131.6 2.60473 132.279 2.6061 132.279 2.6061ZM132.55 2.60297C132.55 2.60341 132.429 2.60376 132.279 2.60376C132.129 2.60376 132.007 2.60341 132.007 2.60297C132.007 2.60254 132.129 2.60219 132.279 2.60219C132.429 2.60219 132.55 2.60254 132.55 2.60297Z" fill="#D9D9D9"/>
<path fill-rule="evenodd" clip-rule="evenodd" d="M110.146 2.30885C110.146 2.30885 110.825 2.30748 110.825 2.30572C110.825 2.3052 110.753 2.30471 110.626 2.30434C110.499 2.30397 110.326 2.30377 110.146 2.30377C109.966 2.30377 109.794 2.30397 109.667 2.30434C109.539 2.30471 109.468 2.3052 109.468 2.30572C109.468 2.30748 110.146 2.30885 110.146 2.30885ZM110.418 2.30573C110.418 2.30616 110.296 2.30651 110.146 2.30651C109.997 2.30651 109.875 2.30616 109.875 2.30573C109.875 2.30529 109.997 2.30494 110.146 2.30494C110.296 2.30494 110.418 2.30529 110.418 2.30573Z" fill="#D9D9D9"/>
<path fill-rule="evenodd" clip-rule="evenodd" d="M133.307 1.99456C133.307 1.99456 133.985 1.99319 133.985 1.99143C133.985 1.99092 133.914 1.99042 133.786 1.99005C133.659 1.98969 133.486 1.98948 133.307 1.98948C133.127 1.98948 132.954 1.98969 132.827 1.99005C132.699 1.99042 132.628 1.99092 132.628 1.99143C132.628 1.99319 133.307 1.99456 133.307 1.99456ZM133.578 1.99144C133.578 1.99187 133.456 1.99222 133.307 1.99222C133.157 1.99222 133.035 1.99187 133.035 1.99144C133.035 1.99101 133.157 1.99066 133.307 1.99066C133.456 1.99066 133.578 1.99101 133.578 1.99144Z" fill="#D9D9D9"/>
<path fill-rule="evenodd" clip-rule="evenodd" d="M138.321 1.66796C138.321 1.66796 139 1.66659 139 1.66483C139 1.66431 138.928 1.66381 138.801 1.66345C138.674 1.66308 138.501 1.66288 138.321 1.66288C138.141 1.66288 137.969 1.66308 137.842 1.66345C137.714 1.66381 137.643 1.66431 137.643 1.66483C137.643 1.66659 138.321 1.66796 138.321 1.66796ZM138.593 1.66483C138.593 1.66526 138.471 1.66561 138.321 1.66561C138.172 1.66561 138.05 1.66526 138.05 1.66483C138.05 1.6644 138.172 1.66405 138.321 1.66405C138.471 1.66405 138.593 1.6644 138.593 1.66483Z" fill="#D9D9D9"/>
<path fill-rule="evenodd" clip-rule="evenodd" d="M104.322 1.34251C104.322 1.34251 105 1.34115 105 1.33939C105 1.33887 104.929 1.33837 104.801 1.33801C104.674 1.33764 104.502 1.33743 104.322 1.33743C104.142 1.33743 103.969 1.33764 103.842 1.33801C103.714 1.33837 103.643 1.33887 103.643 1.33939C103.643 1.34115 104.322 1.34251 104.322 1.34251ZM104.593 1.33923C104.593 1.33966 104.471 1.34001 104.321 1.34001C104.172 1.34001 104.05 1.33966 104.05 1.33923C104.05 1.3388 104.172 1.33845 104.321 1.33845C104.471 1.33845 104.593 1.3388 104.593 1.33923Z" fill="#D9D9D9"/>
<path fill-rule="evenodd" clip-rule="evenodd" d="M122.406 1.01189C122.406 1.01189 123.085 1.01053 123.085 1.00877C123.085 1.00825 123.013 1.00775 122.886 1.00739C122.759 1.00702 122.586 1.00681 122.406 1.00681C122.226 1.00681 122.053 1.00702 121.926 1.00739C121.799 1.00775 121.727 1.00825 121.727 1.00877C121.727 1.01053 122.406 1.01189 122.406 1.01189ZM122.677 1.00877C122.677 1.0092 122.556 1.00955 122.406 1.00955C122.256 1.00955 122.135 1.0092 122.135 1.00877C122.135 1.00834 122.256 1.00799 122.406 1.00799C122.556 1.00799 122.677 1.00834 122.677 1.00877Z" fill="#D9D9D9"/>
<path fill-rule="evenodd" clip-rule="evenodd" d="M98.1025 0.68106C98.1025 0.68106 98.7811 0.679692 98.7811 0.677934C98.7811 0.677416 98.7096 0.676919 98.5823 0.676552C98.4551 0.676186 98.2825 0.67598 98.1025 0.67598C97.9225 0.67598 97.7499 0.676186 97.6227 0.676552C97.4954 0.676919 97.4239 0.677416 97.4239 0.677934C97.4239 0.679692 98.1025 0.68106 98.1025 0.68106ZM98.374 0.678018C98.374 0.67845 98.2525 0.6788 98.1026 0.6788C97.9527 0.6788 97.8312 0.67845 97.8312 0.678018C97.8312 0.677587 97.9527 0.677237 98.1026 0.677237C98.2525 0.677237 98.374 0.677587 98.374 0.678018Z" fill="#D9D9D9"/>
<path fill-rule="evenodd" clip-rule="evenodd" d="M115.157 0.343147C115.157 0.343147 115.836 0.341779 115.836 0.34002C115.836 0.339502 115.764 0.339005 115.637 0.338639C115.51 0.338272 115.337 0.338066 115.157 0.338066C114.977 0.338066 114.805 0.338272 114.678 0.338639C114.55 0.339005 114.479 0.339502 114.479 0.34002C114.479 0.341779 115.157 0.343147 115.157 0.343147ZM115.429 0.340024C115.429 0.340456 115.307 0.340806 115.157 0.340806C115.007 0.340806 114.886 0.340456 114.886 0.340024C114.886 0.339592 115.007 0.339242 115.157 0.339242C115.307 0.339242 115.429 0.339592 115.429 0.340024Z" fill="#D9D9D9"/>
<path fill-rule="evenodd" clip-rule="evenodd" d="M88.3277 0.00508029C88.3277 0.00508029 89.0063 0.00371252 89.0063 0.00195396C89.0063 0.00143574 88.9348 0.000938739 88.8076 0.000572301C88.6803 0.000205863 88.5077 0 88.3277 0C88.1478 0 87.9752 0.000205863 87.8479 0.000572301C87.7207 0.000938739 87.6492 0.00143574 87.6492 0.00195396C87.6492 0.00371252 88.3277 0.00508029 88.3277 0.00508029ZM88.5992 0.00195758C88.5992 0.00238923 88.4777 0.00273916 88.3278 0.00273916C88.1779 0.00273916 88.0564 0.00238923 88.0564 0.00195758C88.0564 0.00152592 88.1779 0.00117599 88.3278 0.00117599C88.4777 0.00117599 88.5992 0.00152592 88.5992 0.00195758Z" fill="#D9D9D9"/>
</svg>
