<svg width="90" height="120" viewBox="0 0 90 120" fill="none" xmlns="http://www.w3.org/2000/svg">
<g filter="url(#filter0_d_1_3147)">
<ellipse cx="59.8658" cy="59.0432" rx="0.128551" ry="0.84967" fill="white"/>
</g>
<path d="M0.0754164 0.734709L0.0770506 0.770248C0.077934 0.768474 0.0787374 0.765289 0.0793902 0.760974L0.0754164 0.734709ZM0.0595688 0.75031V0.787454H0.0595724L0.0595688 0.75031ZM0.113518 0.393727L0.119138 0.393751V0.393727H0.113518ZM0.111158 0.498473L0.115131 0.524738C0.115784 0.520424 0.116266 0.515113 0.116535 0.509274L0.111158 0.498473ZM0.0737822 0.69917C0.0691731 0.708429 0.0643824 0.713145 0.0595652 0.713165L0.0595724 0.787454C0.0654947 0.787427 0.0713841 0.781629 0.0770506 0.770248L0.0737822 0.69917ZM0.0595688 0.713165C0.0500102 0.713165 0.0406662 0.69443 0.0327185 0.65933L0.0264742 0.721099C0.0362702 0.764362 0.0477872 0.787454 0.0595688 0.787454V0.713165ZM0.0327185 0.65933C0.0247707 0.624231 0.0185762 0.574342 0.0149183 0.515972L0.00453443 0.544401C0.00904305 0.616344 0.0166781 0.677834 0.0264742 0.721099L0.0327185 0.65933ZM0.0149183 0.515972C0.0112603 0.4576 0.0103032 0.393373 0.012168 0.331408L0.00114462 0.316915C-0.00115384 0.39329 2.58016e-05 0.472454 0.00453443 0.544401L0.0149183 0.515972ZM0.012168 0.331408C0.0140328 0.269443 0.0186358 0.212524 0.0253948 0.16785L0.0174473 0.11532C0.00911648 0.170384 0.0034431 0.240539 0.00114462 0.316915L0.012168 0.331408ZM0.0253948 0.16785C0.0321538 0.123175 0.0407653 0.0927516 0.0501403 0.080426L0.0479475 0.00756547C0.0363923 0.0227575 0.0257782 0.0602564 0.0174473 0.11532L0.0253948 0.16785ZM0.0501403 0.080426C0.0595153 0.0681004 0.0692324 0.0744265 0.0780639 0.098604L0.082365 0.0299708C0.0714799 0.000170538 0.0595027 -0.00762644 0.0479475 0.00756547L0.0501403 0.080426ZM0.0780639 0.098604C0.0868949 0.122782 0.0944429 0.163725 0.0997533 0.216256L0.109099 0.174984C0.102553 0.110236 0.0932497 0.0597711 0.082365 0.0299708L0.0780639 0.098604ZM0.0997533 0.216256C0.105064 0.268788 0.107898 0.330548 0.107898 0.393727H0.119138C0.119138 0.315855 0.115644 0.239732 0.109099 0.174984L0.0997533 0.216256ZM0.107898 0.393703C0.107895 0.425543 0.107182 0.457207 0.105781 0.487671L0.116535 0.509274C0.118256 0.471821 0.119134 0.432894 0.119138 0.393751L0.107898 0.393703ZM0.107184 0.472208L0.0714426 0.708444L0.0793902 0.760974L0.115131 0.524738L0.107184 0.472208Z" fill="#FD650B"/>
<path d="M0.088493 0.50144C0.0900508 0.483698 0.0891381 0.460967 0.0864537 0.450669C0.0837693 0.440371 0.0803304 0.446405 0.0787723 0.464147L0.088493 0.50144ZM0.041737 0.464147C0.0401789 0.446405 0.0367399 0.440371 0.0340556 0.450669C0.0313714 0.460967 0.0304584 0.483698 0.0320164 0.50144L0.041737 0.464147ZM0.0787723 0.464147C0.0768898 0.485584 0.0741885 0.503377 0.0709387 0.515745L0.0765471 0.580123C0.0815028 0.561262 0.085622 0.53413 0.088493 0.50144L0.0787723 0.464147ZM0.0709387 0.515745C0.067689 0.528113 0.0640047 0.534623 0.0602547 0.534623V0.608911C0.0659732 0.608911 0.0715915 0.598984 0.0765471 0.580123L0.0709387 0.515745ZM0.0602547 0.534623C0.0565047 0.534623 0.0528204 0.528113 0.0495706 0.515745L0.0439622 0.580123C0.0489179 0.598984 0.0545362 0.608911 0.0602547 0.608911V0.534623ZM0.0495706 0.515745C0.0463208 0.503377 0.0436195 0.485584 0.041737 0.464147L0.0320164 0.50144C0.0348872 0.53413 0.0390065 0.561262 0.0439622 0.580123L0.0495706 0.515745Z" fill="#FD650B"/>
<path d="M0.0741396 0.326863C0.077864 0.326863 0.0808833 0.306907 0.0808833 0.28229C0.0808833 0.257673 0.077864 0.237717 0.0741396 0.237717C0.0704152 0.237717 0.067396 0.257673 0.067396 0.28229C0.067396 0.306907 0.0704152 0.326863 0.0741396 0.326863Z" fill="#FD650B"/>
<path d="M0.0340927 0.326863C0.0378172 0.326863 0.0408364 0.306907 0.0408364 0.28229C0.0408364 0.257673 0.0378172 0.237717 0.0340927 0.237717C0.0303683 0.237717 0.0273491 0.257673 0.0273491 0.28229C0.0273491 0.306907 0.0303683 0.326863 0.0340927 0.326863Z" fill="#FD650B"/>
<defs>
<filter id="filter0_d_1_3147" x="29.7314" y="58.1935" width="60.2686" height="61.711" filterUnits="userSpaceOnUse" color-interpolation-filters="sRGB">
<feFlood flood-opacity="0" result="BackgroundImageFix"/>
<feColorMatrix in="SourceAlpha" type="matrix" values="0 0 0 0 0 0 0 0 0 0 0 0 0 0 0 0 0 0 127 0" result="hardAlpha"/>
<feOffset dy="30"/>
<feGaussianBlur stdDeviation="15"/>
<feComposite in2="hardAlpha" operator="out"/>
<feColorMatrix type="matrix" values="0 0 0 0 0.571389 0 0 0 0 0.682951 0 0 0 0 0.733333 0 0 0 0.2 0"/>
<feBlend mode="normal" in2="BackgroundImageFix" result="effect1_dropShadow_1_3147"/>
<feBlend mode="normal" in="SourceGraphic" in2="effect1_dropShadow_1_3147" result="shape"/>
</filter>
</defs>
</svg>
