<svg width="17" height="18" viewBox="0 0 17 18" fill="none" xmlns="http://www.w3.org/2000/svg">
<path d="M14.0399 5.7481C15.6746 5.7481 16.9998 4.46135 16.9998 2.87406C16.9998 1.28675 15.6746 0 14.0399 0C12.4053 0 11.0801 1.28675 11.0801 2.87406C11.0801 4.46135 12.4053 5.7481 14.0399 5.7481Z" fill="#636363"/>
<path d="M2.95982 5.7481C4.59449 5.7481 5.91964 4.46135 5.91964 2.87406C5.91964 1.28675 4.59449 0 2.95982 0C1.32515 0 0 1.28675 0 2.87406C0 4.46135 1.32515 5.7481 2.95982 5.7481Z" fill="#636363"/>
<path d="M14.0399 17.6912C15.6746 17.6912 16.9998 16.4044 16.9998 14.8171C16.9998 13.2298 15.6746 11.9431 14.0399 11.9431C12.4053 11.9431 11.0801 13.2298 11.0801 14.8171C11.0801 16.4044 12.4053 17.6912 14.0399 17.6912Z" fill="#636363"/>
<path d="M2.95982 17.6912C4.59449 17.6912 5.91964 16.4044 5.91964 14.8171C5.91964 13.2298 4.59449 11.9431 2.95982 11.9431C1.32515 11.9431 0 13.2298 0 14.8171C0 16.4044 1.32515 17.6912 2.95982 17.6912Z" fill="#636363"/>
</svg>
