<svg width="20" height="20" viewBox="0 0 20 20" fill="none" xmlns="http://www.w3.org/2000/svg">
<path d="M15.625 10.0625C15.625 13.1346 13.1346 15.625 10.0625 15.625V17.625C14.2392 17.625 17.625 14.2392 17.625 10.0625H15.625ZM10.0625 15.625C6.99042 15.625 4.5 13.1346 4.5 10.0625H2.5C2.5 14.2392 5.88585 17.625 10.0625 17.625V15.625ZM4.5 10.0625C4.5 6.99042 6.99042 4.5 10.0625 4.5V2.5C5.88585 2.5 2.5 5.88585 2.5 10.0625H4.5ZM10.0625 4.5C13.1346 4.5 15.625 6.99042 15.625 10.0625H17.625C17.625 5.88585 14.2392 2.5 10.0625 2.5V4.5Z" fill="white"/>
<path d="M15.4093 13.9961C15.0187 13.6056 14.3856 13.6056 13.995 13.9961C13.6045 14.3866 13.6045 15.0198 13.995 15.4103L15.4093 13.9961ZM17.792 19.2072C18.1825 19.5978 18.8156 19.5978 19.2062 19.2072C19.5967 18.8167 19.5967 18.1835 19.2062 17.793L17.792 19.2072ZM13.995 15.4103L17.792 19.2072L19.2062 17.793L15.4093 13.9961L13.995 15.4103Z" fill="white"/>
</svg>
