<svg width="12" height="13" viewBox="0 0 12 13" fill="none" xmlns="http://www.w3.org/2000/svg">
<path fill-rule="evenodd" clip-rule="evenodd" d="M0.0695688 12.2597C0.0695688 12.2597 0.139138 12.2463 0.139138 12.2291C0.139138 12.224 0.131808 12.2192 0.118761 12.2156C0.105714 12.212 0.0880195 12.21 0.0695688 12.21C0.0511181 12.21 0.0334229 12.212 0.0203762 12.2156C0.00732957 12.2192 0 12.224 0 12.2291C0 12.2463 0.0695688 12.2597 0.0695688 12.2597ZM0.0974536 12.2291C0.0974536 12.2334 0.0849947 12.2368 0.0696261 12.2368C0.0542574 12.2368 0.0417986 12.2334 0.0417986 12.2291C0.0417986 12.2249 0.0542574 12.2215 0.0696261 12.2215C0.0849947 12.2215 0.0974536 12.2249 0.0974536 12.2291Z" fill="#D9D9D9"/>
<path fill-rule="evenodd" clip-rule="evenodd" d="M5.42582 9.6989C5.42582 9.6989 5.49539 9.68552 5.49539 9.66832C5.49539 9.66325 5.48806 9.65839 5.47501 9.6548C5.46196 9.65122 5.44427 9.6492 5.42582 9.6492C5.40737 9.6492 5.38967 9.65122 5.37662 9.6548C5.36358 9.65839 5.35625 9.66325 5.35625 9.66832C5.35625 9.68552 5.42582 9.6989 5.42582 9.6989ZM5.45349 9.66841C5.45349 9.67263 5.44103 9.67605 5.42566 9.67605C5.41029 9.67605 5.39783 9.67263 5.39783 9.66841C5.39783 9.66418 5.41029 9.66076 5.42566 9.66076C5.44103 9.66076 5.45349 9.66418 5.45349 9.66841Z" fill="#D9D9D9"/>
<path fill-rule="evenodd" clip-rule="evenodd" d="M8.76926 6.49554C8.76926 6.49554 8.83883 6.48216 8.83883 6.46496C8.83883 6.45989 8.8315 6.45503 8.81845 6.45145C8.8054 6.44786 8.78771 6.44585 8.76926 6.44585C8.75081 6.44585 8.73311 6.44786 8.72007 6.45145C8.70702 6.45503 8.69969 6.45989 8.69969 6.46496C8.69969 6.48216 8.76926 6.49554 8.76926 6.49554ZM8.79721 6.46507C8.79721 6.46929 8.78475 6.47271 8.76938 6.47271C8.75401 6.47271 8.74155 6.46929 8.74155 6.46507C8.74155 6.46085 8.75401 6.45742 8.76938 6.45742C8.78475 6.45742 8.79721 6.46085 8.79721 6.46507Z" fill="#D9D9D9"/>
<path fill-rule="evenodd" clip-rule="evenodd" d="M11.6824 3.3536C11.6824 3.3536 11.7519 3.34022 11.7519 3.32302C11.7519 3.31795 11.7446 3.31309 11.7316 3.3095C11.7185 3.30592 11.7008 3.3039 11.6824 3.3039C11.6639 3.3039 11.6462 3.30592 11.6332 3.3095C11.6201 3.31309 11.6128 3.31795 11.6128 3.32302C11.6128 3.34022 11.6824 3.3536 11.6824 3.3536ZM11.7101 3.323C11.7101 3.32722 11.6976 3.33064 11.6823 3.33064C11.6669 3.33064 11.6544 3.32722 11.6544 3.323C11.6544 3.31877 11.6669 3.31535 11.6823 3.31535C11.6976 3.31535 11.7101 3.31877 11.7101 3.323Z" fill="#D9D9D9"/>
<path fill-rule="evenodd" clip-rule="evenodd" d="M11.9303 0.0496935C11.9303 0.0496935 11.9998 0.0363145 11.9998 0.0191129C11.9998 0.0140439 11.9925 0.0091824 11.9795 0.00559803C11.9664 0.00201368 11.9487 0 11.9303 0C11.9118 0 11.8941 0.00201368 11.8811 0.00559803C11.868 0.0091824 11.8607 0.0140439 11.8607 0.0191129C11.8607 0.0363145 11.9303 0.0496935 11.9303 0.0496935ZM11.9582 0.0191393C11.9582 0.0233616 11.9457 0.0267845 11.9304 0.0267845C11.915 0.0267845 11.9025 0.0233616 11.9025 0.0191393C11.9025 0.014917 11.915 0.0114942 11.9304 0.0114942C11.9457 0.0114942 11.9582 0.014917 11.9582 0.0191393Z" fill="#D9D9D9"/>
</svg>
