<svg width="26" height="26" viewBox="0 0 26 26" fill="none" xmlns="http://www.w3.org/2000/svg">
<path d="M2.13793 2.2069H23.8621V0H2.13793V2.2069ZM23.8621 2.2069C23.824 2.2069 23.7931 2.17602 23.7931 2.13793H26C26 0.957183 25.0429 0 23.8621 0V2.2069ZM23.7931 2.13793V23.8621H26V2.13793H23.7931ZM23.7931 23.8621C23.7931 23.824 23.824 23.7931 23.8621 23.7931V26C25.0429 26 26 25.0429 26 23.8621H23.7931ZM23.8621 23.7931H2.13793V26H23.8621V23.7931ZM2.13793 23.7931C2.17602 23.7931 2.2069 23.824 2.2069 23.8621H0C0 25.0429 0.957183 26 2.13793 26V23.7931ZM2.2069 23.8621V2.13793H0V23.8621H2.2069ZM2.2069 2.13793C2.2069 2.17602 2.17602 2.2069 2.13793 2.2069V0C0.957183 0 0 0.957183 0 2.13793H2.2069Z" fill="#FD650B"/>
<path d="M13.0679 10.9312C13.0679 10.3217 12.5739 9.82771 11.9645 9.82771C11.3551 9.82771 10.861 10.3217 10.861 10.9312H13.0679ZM10.861 19.207C10.861 19.8164 11.3551 20.3105 11.9645 20.3105C12.5739 20.3105 13.0679 19.8164 13.0679 19.207H10.861ZM10.861 10.9312V19.207H13.0679V10.9312H10.861Z" fill="#FD650B"/>
<path d="M8.93067 10.9312C8.93067 10.3217 8.43664 9.82771 7.82722 9.82771C7.21781 9.82771 6.72378 10.3217 6.72378 10.9312H8.93067ZM6.72378 19.207C6.72378 19.8164 7.21781 20.3105 7.82722 20.3105C8.43664 20.3105 8.93067 19.8164 8.93067 19.207H6.72378ZM6.72378 10.9312V19.207H8.93067V10.9312H6.72378Z" fill="#FD650B"/>
<path d="M10.861 14.5518C10.861 15.1613 11.3551 15.6553 11.9645 15.6553C12.5739 15.6553 13.0679 15.1613 13.0679 14.5518H10.861ZM15.5852 10.9312V9.82771V10.9312ZM18.1024 19.207C18.1024 19.8164 18.5964 20.3105 19.2058 20.3105C19.8153 20.3105 20.3093 19.8164 20.3093 19.207H18.1024ZM13.0679 14.5518C13.0679 13.8842 13.3331 13.244 13.8052 12.7719L12.2447 11.2114C11.3587 12.0973 10.861 13.2989 10.861 14.5518H13.0679ZM13.8052 12.7719C14.2773 12.2998 14.9175 12.0346 15.5852 12.0346V9.82771C14.3322 9.82771 13.1306 10.3254 12.2447 11.2114L13.8052 12.7719ZM15.5852 12.0346C16.2528 12.0346 16.893 12.2998 17.3651 12.7719L18.9256 11.2114C18.0397 10.3254 16.8381 9.82771 15.5852 9.82771V12.0346ZM17.3651 12.7719C17.8372 13.244 18.1024 13.8842 18.1024 14.5518H20.3093C20.3093 13.2989 19.8116 12.0973 18.9256 11.2114L17.3651 12.7719ZM18.1024 14.5518V19.207H20.3093V14.5518H18.1024Z" fill="#FD650B"/>
<path d="M6.72278 7.24144C7.57978 7.24144 8.27451 6.54671 8.27451 5.68972C8.27451 4.83273 7.57978 4.138 6.72278 4.138C5.86579 4.138 5.17106 4.83273 5.17106 5.68972C5.17106 6.54671 5.86579 7.24144 6.72278 7.24144Z" fill="#FD650B"/>
</svg>
