<svg width="26" height="26" viewBox="0 0 26 26" fill="none" xmlns="http://www.w3.org/2000/svg">
<path d="M17.0686 12.9999C17.0686 15.2471 15.2469 17.0688 12.9996 17.0688V19.2757C16.4657 19.2757 19.2755 16.4659 19.2755 12.9999H17.0686ZM12.9996 17.0688C10.7524 17.0688 8.93067 15.2471 8.93067 12.9999H6.72378C6.72378 16.4659 9.53357 19.2757 12.9996 19.2757V17.0688ZM8.93067 12.9999C8.93067 10.7527 10.7524 8.93092 12.9996 8.93092V6.72403C9.53357 6.72403 6.72378 9.53382 6.72378 12.9999H8.93067ZM12.9996 8.93092C15.2469 8.93092 17.0686 10.7527 17.0686 12.9999H19.2755C19.2755 9.53382 16.4657 6.72403 12.9996 6.72403V8.93092Z" fill="#FD650B"/>
<path d="M7.31034 2.2069H18.6896V0H7.31034V2.2069ZM18.6896 2.2069C21.5082 2.2069 23.7931 4.49178 23.7931 7.31034H26C26 3.27295 22.727 0 18.6896 0V2.2069ZM23.7931 7.31034V18.6896H26V7.31034H23.7931ZM23.7931 18.6896C23.7931 21.5082 21.5082 23.7931 18.6896 23.7931V26C22.727 26 26 22.727 26 18.6896H23.7931ZM18.6896 23.7931H7.31034V26H18.6896V23.7931ZM7.31034 23.7931C4.49178 23.7931 2.2069 21.5082 2.2069 18.6896H0C0 22.727 3.27295 26 7.31034 26V23.7931ZM2.2069 18.6896V7.31034H0V18.6896H2.2069ZM2.2069 7.31034C2.2069 4.49178 4.49178 2.2069 7.31034 2.2069V0C3.27295 0 0 3.27295 0 7.31034H2.2069Z" fill="#FD650B"/>
<path d="M18.6196 6.72404C19.4766 6.72404 20.1713 6.02931 20.1713 5.17231C20.1713 4.31532 19.4766 3.62059 18.6196 3.62059C17.7626 3.62059 17.0679 4.31532 17.0679 5.17231C17.0679 6.02931 17.7626 6.72404 18.6196 6.72404Z" fill="#FD650B"/>
</svg>
