<svg width="20" height="20" viewBox="0 0 20 20" fill="none" xmlns="http://www.w3.org/2000/svg">
<path d="M11 11C10.4477 11 10 11.4477 10 12C10 12.5523 10.4477 13 11 13V11ZM17.875 12L18.875 11.999C18.8744 11.4471 18.4269 11 17.875 11V12ZM15.1522 7.84769C15.5427 8.23824 16.1759 8.23828 16.5665 7.84778C16.957 7.45728 16.957 6.82412 16.5665 6.43357L15.1522 7.84769ZM11 13H17.875V11H11V13ZM16.875 12.001C16.8765 13.3624 16.4057 14.682 15.5431 15.7351L17.0903 17.0025C18.2462 15.5914 18.8769 13.8231 18.875 11.999L16.875 12.001ZM15.5431 15.7351C14.6804 16.7882 13.4793 17.5095 12.1443 17.7761L12.536 19.7374C14.3248 19.3801 15.9343 18.4136 17.0903 17.0025L15.5431 15.7351ZM12.1443 17.7761C10.8094 18.0427 9.4233 17.8381 8.22232 17.1972L7.28064 18.9616C8.8899 19.8204 10.7472 20.0946 12.536 19.7374L12.1443 17.7761ZM8.22232 17.1972C7.02136 16.5562 6.07985 15.5186 5.55828 14.2611L3.71091 15.0274C4.40979 16.7123 5.67138 18.1027 7.28064 18.9616L8.22232 17.1972ZM5.55828 14.2611C5.03672 13.0037 4.96738 11.6043 5.36209 10.3015L3.448 9.72163C2.9191 11.4674 3.01202 13.3425 3.71091 15.0274L5.55828 14.2611ZM5.36209 10.3015C5.75679 8.99869 6.5911 7.87308 7.72282 7.11654L6.61133 5.45384C5.09485 6.46758 3.97689 7.97588 3.448 9.72163L5.36209 10.3015ZM7.72282 7.11654C8.85454 6.36 10.2136 6.01936 11.5684 6.15268L11.7642 4.1623C9.9489 3.98365 8.1278 4.44009 6.61133 5.45384L7.72282 7.11654ZM11.5684 6.15268C12.9231 6.28601 14.1897 6.88505 15.1522 7.84769L16.5665 6.43357C15.2768 5.14365 13.5796 4.34095 11.7642 4.1623L11.5684 6.15268Z" fill="#1A1A1A"/>
</svg>
