<svg width="12" height="7" viewBox="0 0 12 7" fill="none" xmlns="http://www.w3.org/2000/svg">
<path d="M11.7707 1.336C12.0764 1.03037 12.0764 0.534848 11.7707 0.229221C11.4651 -0.0764069 10.9696 -0.0764069 10.664 0.229221L11.7707 1.336ZM6 6L5.44661 6.55339C5.75224 6.85901 6.24776 6.85901 6.55339 6.55339L6 6ZM1.336 0.229221C1.03037 -0.0764069 0.534848 -0.0764069 0.229221 0.229221C-0.0764069 0.534848 -0.0764069 1.03037 0.229221 1.336L1.336 0.229221ZM10.664 0.229221L5.44661 5.44661L6.55339 6.55339L11.7707 1.336L10.664 0.229221ZM6.55339 5.44661L1.336 0.229221L0.229221 1.336L5.44661 6.55339L6.55339 5.44661Z" fill="#1A1A1A"/>
</svg>
