<svg width="26" height="26" viewBox="0 0 26 26" fill="none" xmlns="http://www.w3.org/2000/svg">
<path d="M7.31034 2.2069H18.6896V0H7.31034V2.2069ZM18.6896 2.2069C21.5082 2.2069 23.7931 4.49178 23.7931 7.31034H26C26 3.27295 22.727 0 18.6896 0V2.2069ZM23.7931 7.31034V18.6896H26V7.31034H23.7931ZM23.7931 18.6896C23.7931 21.5082 21.5082 23.7931 18.6896 23.7931V26C22.727 26 26 22.727 26 18.6896H23.7931ZM18.6896 23.7931H7.31034V26H18.6896V23.7931ZM7.31034 23.7931C4.49178 23.7931 2.2069 21.5082 2.2069 18.6896H0C0 22.727 3.27295 26 7.31034 26V23.7931ZM2.2069 18.6896V7.31034H0V18.6896H2.2069ZM2.2069 7.31034C2.2069 4.49178 4.49178 2.2069 7.31034 2.2069V0C3.27295 0 0 3.27295 0 7.31034H2.2069Z" fill="#FD650B"/>
</svg>
