<svg width="41" height="41" viewBox="0 0 41 41" fill="none" xmlns="http://www.w3.org/2000/svg">
<path d="M36.4745 25.4256L20.4942 15.592L4.51719 25.4256C3.91402 25.7957 3.12505 25.6087 2.75609 25.0055C2.38457 24.4035 2.5727 23.6146 3.17587 23.2444L19.8238 12.9984C20.235 12.7449 20.755 12.7449 21.1661 12.9984L37.8175 23.2444C38.4209 23.6158 38.608 24.4036 38.2379 25.0055C37.8641 25.6113 37.0726 25.7945 36.4745 25.4256Z" fill="#FD650B"/>
<path d="M23.6982 28.1765L17.2945 28.1765C16.941 28.1765 16.6541 28.4634 16.6542 28.8169L16.6558 38.4225L7.69058 38.4225L7.68843 25.729L20.4946 17.8485L33.3034 25.7303L33.3056 38.4225L24.3403 38.4225L24.3387 28.8169C24.3386 28.4634 24.0517 28.1765 23.6982 28.1765ZM35.861 2.56152L35.8623 10.5406C35.8624 10.9043 35.4232 11.0862 35.1657 10.8288L32.5115 8.17504L28.0296 12.6577C27.5097 13.1789 26.7042 13.275 26.074 12.8984L20.5034 9.55696L2.56456 20.5983L2.56392 16.8393L19.6537 6.32179C20.1621 6.00801 20.8025 6.00416 21.3174 6.31283L26.6497 9.51214L30.2481 5.91324L27.5938 3.25952C27.3352 3.00081 27.5182 2.56151 27.8819 2.56151L35.861 2.56152Z" fill="#FD650B"/>
</svg>
