<svg width="7" height="12" viewBox="0 0 7 12" fill="none" xmlns="http://www.w3.org/2000/svg">
<path d="M1.336 0.229252C1.03037 -0.0763829 0.534848 -0.0763829 0.22922 0.229252C-0.0764074 0.534887 -0.0764073 1.03037 0.22922 1.336L1.336 0.229252ZM6 6L6.55339 6.55339C6.85901 6.24776 6.85901 5.75224 6.55339 5.44661L6 6ZM0.229221 10.664C-0.0764069 10.9696 -0.0764069 11.4652 0.229221 11.7708C0.534848 12.0764 1.03037 12.0764 1.336 11.7708L0.229221 10.664ZM0.22922 1.336L5.44661 6.55339L6.55339 5.44661L1.336 0.229252L0.22922 1.336ZM5.44661 5.44661L0.229221 10.664L1.336 11.7708L6.55339 6.55339L5.44661 5.44661Z" fill="#1A1A1A"/>
</svg>
