<svg width="20" height="20" viewBox="0 0 20 20" fill="none" xmlns="http://www.w3.org/2000/svg">
<path d="M3.25 8.25L2.83397 7.62596C2.62533 7.76506 2.5 7.99924 2.5 8.25H3.25ZM18.25 8.25H19C19 7.99924 18.8747 7.76506 18.666 7.62596L18.25 8.25ZM10.75 3.25L11.166 2.62596C10.9141 2.45801 10.5859 2.45801 10.334 2.62596L10.75 3.25ZM2.5 8.25V16.375H4V8.25H2.5ZM2.5 16.375C2.5 16.7397 2.64487 17.0894 2.90273 17.3473L3.96339 16.2866C3.98683 16.3101 4 16.3418 4 16.375H2.5ZM2.90273 17.3473C3.16059 17.6051 3.51033 17.75 3.875 17.75V16.25C3.90815 16.25 3.93995 16.2632 3.96339 16.2866L2.90273 17.3473ZM3.875 17.75H17.625V16.25H3.875V17.75ZM17.625 17.75C17.9897 17.75 18.3394 17.6051 18.5973 17.3473L17.5366 16.2866C17.5601 16.2632 17.5919 16.25 17.625 16.25V17.75ZM18.5973 17.3473C18.8551 17.0894 19 16.7397 19 16.375H17.5C17.5 16.3419 17.5132 16.3101 17.5366 16.2866L18.5973 17.3473ZM19 16.375V8.25H17.5V16.375H19ZM18.666 7.62596L11.166 2.62596L10.334 3.87404L17.834 8.87404L18.666 7.62596ZM10.334 2.62596L2.83397 7.62596L3.66603 8.87404L11.166 3.87404L10.334 2.62596Z" fill="#6E6E6E"/>
<path d="M18.6857 8.86062C19.0229 8.62007 19.1012 8.1517 18.8607 7.8145C18.6201 7.47729 18.1517 7.39894 17.8145 7.6395L18.6857 8.86062ZM12.1172 12.6251V13.3751C12.2734 13.3751 12.4257 13.3263 12.5528 13.2356L12.1172 12.6251ZM9.38287 12.6251L8.94731 13.2356C9.07444 13.3263 9.22671 13.3751 9.38287 13.3751V12.6251ZM3.68562 7.6395C3.34841 7.39894 2.88005 7.47729 2.6395 7.8145C2.39894 8.1517 2.47729 8.62007 2.8145 8.86062L3.68562 7.6395ZM17.8145 7.6395L11.6817 12.0145L12.5528 13.2356L18.6857 8.86062L17.8145 7.6395ZM12.1172 11.8751H9.38287V13.3751H12.1172V11.8751ZM9.81843 12.0145L3.68562 7.6395L2.8145 8.86062L8.94731 13.2356L9.81843 12.0145Z" fill="#6E6E6E"/>
</svg>
