<svg width="13" height="13" viewBox="0 0 13 13" fill="none" xmlns="http://www.w3.org/2000/svg">
<path d="M1.05786 12.8841C0.789338 12.8841 0.506687 12.7722 0.308831 12.5764C0.0120463 12.2686 -0.0868816 11.8209 0.0827094 11.4292L2.71137 5.21792C2.7679 5.09202 2.79616 5.00808 2.83856 4.93813C4.93018 0.167702 7.60125 -0.993428 12.3216 0.79723C12.5901 0.895157 12.8021 1.105 12.9151 1.3708C13.0282 1.63661 13.0282 1.93039 12.9151 2.19619L8.77424 11.709C8.60465 12.1007 8.22309 12.3385 7.79911 12.3385H3.77131C2.96575 12.3385 2.20259 12.4924 1.4677 12.8002C1.3405 12.8561 1.19918 12.8841 1.05786 12.8841ZM8.70358 2.09826C6.95114 2.09826 5.87706 3.23141 4.76059 5.80548C4.74646 5.84745 4.71819 5.88942 4.70407 5.93139L2.85269 10.2821C3.16361 10.2541 3.46039 10.2402 3.77131 10.2402H7.09248L10.4984 2.40603C9.8342 2.19619 9.24062 2.09826 8.70358 2.09826Z" fill="#FD650B"/>
</svg>
